<svg width="151" height="150" viewBox="0 0 151 150" fill="none" xmlns="http://www.w3.org/2000/svg">
<g clip-path="url(#clip0_2414_10025)">
<path fill-rule="evenodd" clip-rule="evenodd" d="M101.375 9.72294C110.301 4.75902 121.155 4.75902 130.08 9.72294C130.083 9.72483 130.087 9.72799 130.09 9.72925C138.184 14.2304 143.999 21.9468 146.101 30.9739C148.204 40 146.397 49.4946 141.127 57.115C131.767 70.6503 121.872 84.9616 117.731 90.9492C117.275 91.6072 116.526 92 115.726 92C114.926 92 114.177 91.6072 113.722 90.9492C109.582 84.9617 99.6854 70.6503 90.3259 57.1166C85.0563 49.4961 83.2498 39.999 85.3518 30.9739C87.454 21.9471 93.2692 14.2313 101.363 9.72925C101.366 9.72799 101.371 9.72483 101.375 9.72294Z" fill="white" stroke="#009B3E" stroke-width="6"/>
<path fill-rule="evenodd" clip-rule="evenodd" d="M127.93 37.7212C127.93 44.4602 122.467 49.9229 115.729 49.9229C108.99 49.9229 103.527 44.4601 103.527 37.7212C103.527 30.9823 108.99 25.5195 115.729 25.5195C122.467 25.5195 127.93 30.9823 127.93 37.7212Z" fill="white"/>
<path d="M127.93 37.7212C127.93 44.4602 122.467 49.9229 115.729 49.9229C108.99 49.9229 103.527 44.4601 103.527 37.7212C103.527 30.9823 108.99 25.5195 115.729 25.5195C122.467 25.5195 127.93 30.9823 127.93 37.7212" stroke="#009B3E" stroke-width="6"/>
<path d="M60.0566 101.1V101.995L60.0701 101.995L60.0566 101.1ZM60.0566 101.1C56.9483 101.147 56.9491 96.262 60.0566 96.3091H74.4279C77.5609 96.3219 77.5598 101.088 74.4279 101.1H60.0566ZM28.92 128.947H33.7471C32.1537 131.7 31.8313 135.071 32.7297 138.043C33.9726 142.155 37.5525 145.534 43.2443 145.713L43.2913 145.714L43.3383 145.713C49.029 145.535 52.6091 142.156 53.8524 138.044C54.7512 135.072 54.4292 131.7 52.8356 128.947H74.4665C72.8731 131.7 72.5508 135.071 73.4491 138.043C74.692 142.155 78.2719 145.534 83.9637 145.713L84.0106 145.714L84.0576 145.713C89.7484 145.535 93.3285 142.156 94.5718 138.045C95.4706 135.073 95.1486 131.7 93.555 128.947H99.5787H99.6085L99.6383 128.946C102.043 128.85 103.942 127.903 105.217 126.438C106.473 124.995 107.046 123.139 106.997 121.333C106.948 119.526 106.276 117.697 104.95 116.303C103.605 114.888 101.662 113.999 99.244 113.971L99.2274 115.42V113.971H99.2269H97.4863V26.8475C97.4863 22.0509 93.5972 18.1618 88.8007 18.1618H45.6866C40.89 18.1618 37.0009 22.0509 37.0009 26.8475V113.971H35.2105V10.0809C35.2105 3.96053 30.2499 -1 24.1295 -1H6.16535H6.13553L6.10574 -0.998815C3.70108 -0.903172 1.80228 0.044141 0.527261 1.50926C-0.728607 2.95236 -1.30181 4.80775 -1.25298 6.61439C-1.20413 8.42148 -0.531464 10.2497 0.794817 11.6445C2.13987 13.059 4.08274 13.9485 6.50112 13.976L6.50968 13.9761H6.51823H19.3391C19.8334 13.9761 20.2344 14.3771 20.2344 14.8714V120.261C20.2344 125.058 24.1235 128.947 28.92 128.947ZM65.6616 34.4651L63.9533 35.2241V25.9523H70.5341V35.2241L68.8258 34.4651L68.8253 34.4649C67.8187 34.0181 66.6687 34.0181 65.6621 34.4649L65.6616 34.4651ZM65.6616 82.3697L63.9533 83.1286L63.9532 73.8568H70.5341V83.1286L68.8258 82.3697L68.8236 82.3687C67.8158 81.9229 66.6716 81.9229 65.6639 82.3687L65.6616 82.3697ZM75.9821 102.297C76.5048 102.079 76.9567 101.75 77.3199 101.334C77.9805 100.577 78.2771 99.6153 78.2772 98.7048C78.2773 97.7944 77.9809 96.8324 77.3204 96.0752C76.6345 95.2891 75.6317 94.814 74.4341 94.8091H74.4279H60.0665C58.8629 94.7943 57.8563 95.2717 57.1725 96.0648C56.5152 96.8271 56.2257 97.7956 56.2256 98.7041C56.2256 99.6127 56.5149 100.581 57.1722 101.344C57.5262 101.754 57.9667 102.08 58.4763 102.297C57.9668 102.514 57.5264 102.84 57.1725 103.25C56.5152 104.013 56.2257 104.981 56.2256 105.89C56.2256 106.798 56.5149 107.767 57.1722 108.529C57.8561 109.323 58.8628 109.8 60.0665 109.785L74.4279 109.785L74.4336 109.785C75.6311 109.781 76.6339 109.306 77.3199 108.52C77.9805 107.763 78.2771 106.801 78.2772 105.891C78.2773 104.98 77.9809 104.018 77.3204 103.261C76.9572 102.845 76.505 102.515 75.9821 102.297ZM60.0566 46.9045L60.0509 46.9045C58.8534 46.909 57.8506 47.3839 57.1646 48.1699C56.504 48.9268 56.2074 49.8888 56.2073 50.7992C56.2072 51.7096 56.5036 52.6717 57.1641 53.4288C57.5274 53.8452 57.9795 54.1743 58.5024 54.3925C57.9797 54.6106 57.5278 54.9395 57.1646 55.3555C56.504 56.1125 56.2074 57.0744 56.2073 57.9849C56.2072 58.8953 56.5036 59.8573 57.1641 60.6145C57.85 61.4006 58.8528 61.8757 60.0504 61.8807H60.0566L74.4279 61.8807L74.4336 61.8806C75.6311 61.8761 76.6339 61.4012 77.3199 60.6153C77.9805 59.8584 78.2771 58.8964 78.2772 57.986C78.2773 57.0756 77.9809 56.1135 77.3204 55.3564C76.9572 54.94 76.505 54.6109 75.9821 54.3927C76.5048 54.1746 76.9567 53.8457 77.3199 53.4296C77.9805 52.6727 78.2771 51.7107 78.2772 50.8003C78.2773 49.8899 77.9809 48.9278 77.3204 48.1707C76.6345 47.3846 75.6317 46.9094 74.4341 46.9045H74.4279L60.0566 46.9045ZM43.2914 137.923C38.9423 137.82 38.9361 131.446 43.2912 131.343C47.6337 131.445 47.6521 137.819 43.2914 137.923ZM84.0103 137.923C79.6678 137.82 79.6495 131.446 84.0101 131.343C88.3581 131.445 88.3643 137.819 84.0103 137.923ZM44.7914 26.8475C44.7914 26.3532 45.1923 25.9523 45.6866 25.9523H56.1627V41.1993C56.1295 42.6348 56.9248 43.813 57.9426 44.4742C58.9605 45.1355 60.3599 45.3833 61.6575 44.7719L67.2438 42.2892L72.8296 44.7707C74.1264 45.3825 75.5259 45.1344 76.5434 44.4742C77.5613 43.8137 78.3585 42.6356 78.3245 41.1988V25.9522H88.8007C89.295 25.9522 89.6959 26.3532 89.6959 26.8475V66.0663H44.7914V26.8475ZM44.7914 73.8568H56.1627V89.1037C56.1294 90.5397 56.9244 91.7174 57.9428 92.3784C58.9611 93.0393 60.3595 93.2856 61.6562 92.677L67.2438 90.1938L72.8293 92.6751C74.1262 93.287 75.5258 93.039 76.5434 92.3787C77.5613 91.7182 78.3585 90.5402 78.3245 89.1034V73.8568H89.6959V113.971H44.7914V73.8568ZM27.42 11.681C26.5385 9.45039 24.7601 7.67195 22.5295 6.79045H24.1295C25.9466 6.79045 27.42 8.26388 27.42 10.0809V11.681ZM28.0248 118.165C28.6464 119.475 29.7068 120.535 31.0159 121.157H28.92C28.4257 121.157 28.0248 120.756 28.0248 120.261V118.165Z" fill="#393D38" stroke="white" stroke-width="3"/>
</g>
<defs>
<clipPath id="clip0_2414_10025">
<rect width="150" height="150" fill="white" transform="translate(0.5)"/>
</clipPath>
</defs>
</svg>
