<svg width="151" height="150" viewBox="0 0 151 150" fill="none" xmlns="http://www.w3.org/2000/svg">
<path d="M135.829 54.6532C135.669 54.391 135.461 54.1605 135.218 53.9747L128.326 46.3169C126.819 44.6431 124.665 43.6839 122.414 43.6839H103.453C102.369 43.6839 101.335 43.9024 100.393 44.2968V35.1183C100.393 31.7446 97.6487 29 94.2749 29H8.61833C5.24465 29 2.5 31.7445 2.5 35.1183V96.3016C2.5 99.6753 5.24451 102.42 8.61833 102.42H10.7772L14.9956 110.857C15.4097 111.686 16.2575 112.209 17.184 112.209H22.3245C23.4618 117.788 28.4056 121.999 34.3153 121.999C40.225 121.999 45.1689 117.788 46.3061 112.209H97.37L101.748 114.398C102.088 114.568 102.462 114.657 102.843 114.657H108.762C110.654 118.974 114.967 121.999 119.974 121.999C126.721 121.999 132.211 116.51 132.211 109.762H140.776C145.499 109.762 149.342 105.919 149.342 101.196V72.9526C149.342 70.8331 148.561 68.7978 147.142 67.2222L135.829 54.6532ZM144.445 72.9525V80.3938H130.774L121.702 71.3211C121.243 70.8622 120.62 70.6043 119.971 70.6043H110.182V58.3677H132.586L143.502 70.4961C144.109 71.1713 144.444 72.0432 144.444 72.9522L144.445 72.9525ZM7.39399 96.3015V35.1182C7.39399 34.443 7.94244 33.8945 8.61765 33.8945H94.2742C94.9494 33.8945 95.4979 34.443 95.4979 35.1182V97.5237H8.61905C7.94384 97.5237 7.39539 96.9753 7.39539 96.3L7.39399 96.3015ZM16.248 102.42H24.5317C23.461 103.843 22.6919 105.507 22.3237 107.314H18.6952L16.248 102.42ZM34.3146 117.104C30.2666 117.104 26.9726 113.81 26.9726 109.762C26.9726 105.714 30.2666 102.42 34.3146 102.42C38.3627 102.42 41.6566 105.714 41.6566 109.762C41.6566 113.81 38.3627 117.104 34.3146 117.104ZM103.419 109.762L99.0411 107.573C98.7013 107.403 98.3265 107.314 97.9463 107.314H46.3062C45.938 105.507 45.17 103.843 44.0982 102.42H110.19C108.651 104.466 107.736 107.01 107.736 109.762H103.419ZM119.972 117.104C115.924 117.104 112.63 113.81 112.63 109.762C112.63 105.714 115.924 102.42 119.972 102.42C124.02 102.42 127.314 105.714 127.314 109.762C127.314 113.81 124.02 117.104 119.972 117.104ZM131.184 104.867C129.292 100.549 124.979 97.5251 119.972 97.5251H100.394V51.6384C100.394 49.9515 101.766 48.5791 103.453 48.5791H122.414C123.28 48.5791 124.109 48.9483 124.688 49.5919L128.182 53.4738H107.736C106.384 53.4738 105.288 54.5696 105.288 55.9211V73.0524C105.288 74.4039 106.384 75.4997 107.736 75.4997H118.958L128.031 84.5725C128.49 85.0313 129.113 85.2892 129.762 85.2892H144.446V95.0785H137.104C135.752 95.0785 134.656 96.1744 134.656 97.5258V104.868L131.184 104.867ZM140.775 104.867H139.551V99.9725H144.446V101.196C144.446 103.221 142.799 104.867 140.775 104.867Z" fill="#393D38"/>
<path d="M122.416 109.762C122.416 111.113 121.32 112.209 119.969 112.209C118.617 112.209 117.521 111.113 117.521 109.762C117.521 108.41 118.617 107.314 119.969 107.314C121.32 107.314 122.416 108.41 122.416 109.762Z" fill="#393D38"/>
<path d="M36.7599 109.762C36.7599 111.113 35.6641 112.209 34.3126 112.209C32.9611 112.209 31.8652 111.113 31.8652 109.762C31.8652 108.41 32.9611 107.314 34.3126 107.314C35.6641 107.314 36.7599 108.41 36.7599 109.762Z" fill="#393D38"/>
<path d="M117.523 82.8406H112.628C111.277 82.8406 110.181 83.9364 110.181 85.2879C110.181 86.6394 111.277 87.7352 112.628 87.7352H117.523C118.874 87.7352 119.97 86.6394 119.97 85.2879C119.97 83.9364 118.874 82.8406 117.523 82.8406Z" fill="#393D38"/>
<path d="M38.6538 60.1677C39.305 66.9537 47.5257 71.4648 55.6956 72.6856C54.6883 67.5067 54.1794 62.2433 54.1758 56.9674C51.798 56.3091 47.7065 55.3826 46.8202 55.2018C45.8363 55.0032 44.8351 54.9034 43.8313 54.9039C42.0267 54.9217 38.2686 56.1484 38.6538 60.1677ZM72.4384 64.4152C68.4113 62.1621 64.1956 60.264 59.8391 58.7425C59.6288 63.5772 58.6085 68.3422 56.8207 72.8392C65.0072 73.7515 72.7906 71.3004 72.4384 64.4093V64.4152ZM78.5 66C78.5 71.1423 76.9752 76.1691 74.1182 80.4448C71.2613 84.7205 67.2006 88.053 62.4497 90.0209C57.6989 91.9888 52.4712 92.5036 47.4277 91.5004C42.3842 90.4972 37.7514 88.0209 34.1153 84.3848C30.4791 80.7486 28.0028 76.1159 26.9996 71.0723C25.9964 66.0288 26.5112 60.8011 28.4791 56.0503C30.447 51.2994 33.7795 47.2387 38.0552 44.3818C42.3309 41.5249 47.3577 40 52.5 40C59.3954 40.0003 66.0084 42.7398 70.884 47.6157C75.7597 52.4916 78.4988 59.1046 78.4988 66H78.5ZM32.1444 54.2716C33.1603 53.8637 34.2409 53.64 35.3353 53.611C37.2199 53.7402 39.1265 53.9392 41.0553 54.2079C40.2099 54.1582 39.3708 54.1247 38.538 54.1074C36.3091 54.2374 31.7473 56.0397 32.4848 61.1451C34.9855 78.4481 74.5574 82.1815 74.5397 65.5462C75.029 65.8259 75.5136 66.1095 75.9934 66.3971C75.9934 66.2647 75.9934 66.1324 75.9934 66C75.9917 60.8279 74.2833 55.8009 71.1332 51.6987C67.9831 47.5966 63.5673 44.6486 58.5709 43.3121C53.5744 41.9756 48.2766 42.3252 43.4991 44.3068C38.7216 46.2884 34.7316 49.7911 32.1479 54.2716H32.1444ZM73.4312 76.6683C62.8421 84.5865 35.4677 79.3309 29.0019 66.0319C29.0082 71.307 30.7896 76.4265 34.0591 80.5661C37.3287 84.7057 41.8963 87.6246 47.0265 88.8528C52.1566 90.0809 57.5507 89.5468 62.3405 87.3366C67.1302 85.1264 71.0368 81.3687 73.4312 76.6683Z" fill="#009B44"/>
</svg>
