<svg width="151" height="150" viewBox="0 0 151 150" fill="none" xmlns="http://www.w3.org/2000/svg">
<path d="M130.145 82.4095V52.1985C130.17 51.6844 129.983 51.1834 129.628 50.8118C129.273 50.4391 128.781 50.2289 128.267 50.2301H111.53V15.0063C111.53 13.9046 110.771 13 109.668 13H91.0737C89.972 13 88.9261 13.9046 88.9261 15.0063V54.8831H74.6326V24.3031C74.6326 23.2014 73.5796 22.3063 72.4779 22.3063H53.8819C52.7803 22.3063 52.0288 23.2014 52.0288 24.3031V36.2673H35.2861C34.7708 36.2697 34.2793 36.4834 33.9256 36.8574C33.5718 37.2325 33.3866 37.7359 33.4139 38.2499V73.498H16.6903C16.1763 73.4909 15.6836 73.6951 15.3251 74.0631C14.9677 74.4311 14.7778 74.9309 14.7992 75.4438V115.381H6.48889V46.5566C6.48889 45.4549 5.59614 44.5622 4.49444 44.5622C3.39275 44.5622 2.5 45.4549 2.5 46.5566V117.284C2.5273 118.418 3.4343 119.333 4.56805 119.37H93.9496C97.9895 130.007 108.483 138 120.763 138C136.526 138 149.292 125.154 149.292 109.39C149.312 103.458 147.477 97.6671 144.043 92.8294C140.61 87.9916 135.75 84.3483 130.144 82.4084L130.145 82.4095ZM120.638 80.7807C117.542 80.7914 114.467 81.2947 111.53 82.2741V72.8339H126.156V81.3186C124.339 80.9566 122.491 80.7759 120.638 80.7807ZM92.915 102.274V35.6046H107.541V83.9666C100.56 87.6707 95.2418 94.3034 92.915 102.275V102.274ZM126.157 54.2194V68.8453H111.531V54.2194H126.157ZM107.542 16.9897V31.6157H92.9165V16.9897H107.542ZM88.9276 58.8723V73.4982H74.6342V58.8723H88.9276ZM56.0197 26.2956H70.6456V40.9216H56.0197V26.2956ZM52.0308 40.2569V59.5367H37.4048V40.2569H52.0308ZM33.4159 77.4865V96.7663H18.79V77.4865H33.4159ZM18.79 100.755H33.4159V115.381H18.79V100.755ZM37.4048 75.4433V63.5253H52.0308V115.379H37.4048V75.4433ZM56.0197 44.912H70.6456V115.384H56.0197V44.912ZM74.6345 77.4887H88.9279V115.384H74.6345V77.4887ZM120.766 133.968C115.589 133.962 110.545 132.324 106.352 129.289C102.159 126.253 99.0285 121.975 97.4047 117.058C97.3762 116.807 97.2991 116.562 97.1792 116.339C95.5136 110.714 95.9148 104.679 98.3094 99.3234C100.704 93.9681 104.935 89.6443 110.238 87.1358C115.54 84.6261 121.565 84.0954 127.225 85.6388C127.528 85.8263 127.876 85.9284 128.231 85.9344C135.748 88.3301 141.66 94.1863 144.126 101.681C146.593 109.174 145.314 117.397 140.69 123.789C136.065 130.181 128.656 133.967 120.766 133.968Z" fill="#393D38"/>
<path d="M128.678 111.343C128.154 110.432 127.435 109.659 126.578 109.084C125.743 108.524 124.836 108.089 123.884 107.794C123.359 107.624 122.724 107.449 121.999 107.247C121.417 107.077 120.781 106.919 119.799 106.7L119.8 106.7C118.782 106.476 117.783 106.169 116.812 105.782C116.337 105.58 115.918 105.261 115.588 104.852C115.319 104.487 115.187 104.031 115.216 103.572V103.364C115.236 102.977 115.366 102.604 115.588 102.292C115.983 101.793 116.5 101.415 117.085 101.199C118.048 100.86 119.062 100.708 120.078 100.75C120.865 100.75 121.648 100.857 122.409 101.067C122.913 101.216 123.388 101.457 123.811 101.778C124.08 101.979 124.31 102.232 124.488 102.522L125.628 104.359L129.161 101.992L128.022 100.154C127.561 99.4033 126.968 98.7502 126.274 98.2291C125.455 97.6089 124.538 97.1439 123.564 96.8562C123.186 96.7448 122.802 96.6536 122.414 96.5827V92H118.214V96.49C117.373 96.6006 116.544 96.7982 115.741 97.0805C114.429 97.5505 113.266 98.3844 112.375 99.4921L112.317 99.5631C111.509 100.633 111.049 101.943 111.005 103.304C110.917 104.803 111.347 106.285 112.217 107.482L112.285 107.575H112.286C113.09 108.599 114.136 109.389 115.321 109.867C116.495 110.329 117.703 110.695 118.933 110.96C119.831 111.168 120.403 111.311 120.918 111.464H120.976C121.642 111.639 122.204 111.797 122.692 111.95C123.262 112.125 123.804 112.383 124.304 112.716C124.603 112.922 124.854 113.195 125.039 113.514C125.229 113.907 125.32 114.344 125.302 114.783V114.882C125.32 115.413 125.175 115.936 124.887 116.374C124.47 116.98 123.889 117.443 123.217 117.703C122.198 118.11 121.11 118.296 120.02 118.25H119.888C118.706 118.288 117.532 118.029 116.465 117.495C115.937 117.199 115.486 116.775 115.147 116.259L113.95 114.46L110.5 116.954L111.697 118.753V118.753C112.428 119.856 113.402 120.76 114.538 121.389L114.596 121.416C115.736 121.992 116.957 122.37 118.213 122.538V127H122.414V122.439C123.212 122.294 123.993 122.063 124.745 121.75C126.161 121.188 127.391 120.209 128.284 118.934C128.996 117.832 129.412 116.552 129.487 115.227C129.563 113.901 129.296 112.579 128.715 111.398L128.678 111.343Z" fill="#009B3E"/>
</svg>
