<svg width="150" height="150" viewBox="0 0 150 150" fill="none" xmlns="http://www.w3.org/2000/svg">
<g clip-path="url(#clip0_2414_9997)">
<path d="M118.358 16.4383H91.7533V9.18253C91.7533 7.73137 90.544 6.76393 89.3347 6.76393H84.2556C83.2882 2.89418 79.4184 -0.25 75.0649 -0.25C70.7115 -0.25 66.8417 2.89418 65.8743 6.76393H60.7952C59.3441 6.76393 58.3766 7.73137 58.3766 9.18253V16.1965H31.7721C28.1442 16.1965 25 19.3406 25 22.9685V142.688C25 146.316 28.1442 149.46 31.7721 149.46H87.3998C85.9486 148.009 84.4975 146.316 83.2882 144.623H31.7707C30.8033 144.623 29.8358 143.655 29.8358 142.688V23.209C29.8358 22.2416 30.5614 21.2741 31.7707 21.2741H54.7474L50.152 25.8695H36.8497C35.6404 25.8695 34.4311 26.8369 34.4311 28.2881V137.852C34.4311 139.061 35.6404 140.27 36.8497 140.27H80.8682C80.1426 138.819 79.6589 137.126 79.417 135.433H39.5088V30.7066H48.9413V37.7206C48.9413 39.1717 49.9088 40.1392 51.3599 40.1392H99.0077C100.217 40.1392 101.426 39.1717 101.426 37.7206V30.7066H110.859V104.232C112.552 104.474 114.245 104.958 115.696 105.683V28.2881C115.696 26.8369 114.729 25.8695 113.277 25.8695H99.9751L95.3798 21.2741H118.356C119.566 21.2741 120.291 21.9997 120.291 23.209V108.1C121.984 109.31 123.677 110.519 125.129 112.212V23.2076C125.129 19.3379 121.984 16.4355 118.356 16.4355L118.358 16.4383ZM96.3486 29.2569V35.3034H53.7813V29.2569L62.4882 20.5499V20.3081C62.972 19.8243 63.2138 19.3406 63.2138 18.6151V11.6011H67.8092C69.2603 11.6011 70.2277 10.6337 70.2277 9.18253C70.2277 6.76393 72.4045 4.58719 75.0649 4.58719C77.7254 4.58719 79.9021 6.76393 79.9021 9.18253C79.9021 10.6337 81.1114 11.6011 82.3207 11.6011H87.1579V18.6151C87.1579 19.3406 87.3998 19.8243 87.8835 20.3081V20.5499L96.3486 29.2569Z" fill="#393D38"/>
<path d="M75.067 7.00562C73.8577 7.00562 72.6484 7.97305 72.6484 9.42421C72.6484 10.8754 73.6159 11.8428 75.067 11.8428C76.5182 11.8428 77.4856 10.8754 77.4856 9.42421C77.4856 7.97305 76.2763 7.00562 75.067 7.00562Z" fill="#393D38"/>
<path d="M103.605 61.6658H70.2282C69.0189 61.6658 67.8096 60.6984 67.8096 59.2472C67.8096 58.0379 68.777 56.8286 70.2282 56.8286H103.605C104.814 56.8286 106.023 57.7961 106.023 59.2472C106.023 60.6984 104.814 61.6658 103.605 61.6658Z" fill="#393D38"/>
<path d="M51.3642 66.5031C50.6386 66.5031 50.1549 66.2613 49.6712 65.7775L44.834 60.9403C43.8665 59.9729 43.8665 58.5217 44.834 57.5543C45.8014 56.5869 47.2526 56.5869 48.22 57.5543L51.3642 60.6985L59.1037 52.959C60.0711 51.9915 61.5223 51.9915 62.4897 52.959C63.4572 53.9264 63.4572 55.3776 62.4897 56.345L53.0572 65.7775C52.5735 66.2613 51.8479 66.5031 51.3642 66.5031Z" fill="#393D38"/>
<path d="M94.1713 80.7742H70.2272C69.0179 80.7742 67.8086 79.8068 67.8086 78.3556C67.8086 76.9045 68.776 75.937 70.2272 75.937H93.9294C95.1387 75.937 96.348 76.9045 96.348 78.3556C96.348 79.8068 95.3806 80.7742 94.1713 80.7742Z" fill="#393D38"/>
<path d="M51.3642 85.3684C50.6386 85.3684 50.1549 85.1265 49.6712 84.6428L44.834 79.8056C43.8665 78.8381 43.8665 77.387 44.834 76.4195C45.8014 75.4521 47.2526 75.4521 48.22 76.4195L51.3642 79.5637L59.1037 71.8242C60.0711 70.8568 61.5223 70.8568 62.4897 71.8242C63.4572 72.7917 63.4572 74.2428 62.4897 75.2102L53.0572 84.6428C52.5735 85.1265 51.8479 85.3684 51.3642 85.3684Z" fill="#393D38"/>
<path d="M103.605 99.6365H70.2282C69.0189 99.6365 67.8096 98.6691 67.8096 97.2179C67.8096 96.0086 68.777 94.7993 70.2282 94.7993H103.605C104.814 94.7993 106.023 95.7668 106.023 97.2179C106.023 98.6691 104.814 99.6365 103.605 99.6365Z" fill="#393D38"/>
<path d="M51.3642 104.474C50.6386 104.474 50.1549 104.232 49.6712 103.748L44.834 98.9108C43.8665 97.9434 43.8665 96.4922 44.834 95.5248C45.8014 94.5573 47.2526 94.5573 48.22 95.5248L51.3642 98.6689L59.1037 90.9294C60.0711 89.962 61.5223 89.962 62.4897 90.9294C63.4572 91.8969 63.4572 93.348 62.4897 94.3155L53.0572 103.748C52.5735 104.232 51.8479 104.474 51.3642 104.474Z" fill="#393D38"/>
<path d="M84.7397 113.907C83.5304 115.359 82.563 117.052 81.8374 118.745H70.2282C69.0189 118.745 67.8096 117.777 67.8096 116.326C67.8096 115.117 68.777 113.907 70.2282 113.907H84.7397Z" fill="#393D38"/>
<path d="M51.3642 123.582C50.6386 123.582 50.1549 123.34 49.6712 122.856L44.834 118.019C43.8665 117.052 43.8665 115.601 44.834 114.633C45.8014 113.666 47.2526 113.666 48.22 114.633L51.3642 117.777L59.1037 110.038C60.0711 109.07 61.5223 109.07 62.4897 110.038C63.4572 111.005 63.4572 112.456 62.4897 113.424L53.0572 122.856C52.5735 123.34 51.8479 123.582 51.3642 123.582Z" fill="#393D38"/>
<path d="M103.366 137.61C102.641 137.61 102.157 137.368 101.673 136.884L96.8359 132.047C95.8685 131.08 95.8685 129.629 96.8359 128.661C97.8034 127.694 99.2545 127.694 100.222 128.661L103.366 131.805L111.106 124.066C112.073 123.098 113.524 123.098 114.492 124.066C115.459 125.033 115.459 126.485 114.492 127.452L105.059 136.884C104.575 137.368 103.85 137.61 103.366 137.61Z" fill="#009B3E"/>
<path d="M105.781 149.703C95.1396 149.703 86.4326 140.996 86.4326 130.354C86.4326 119.712 95.1396 111.005 105.781 111.005C116.423 111.005 125.13 119.712 125.13 130.354C125.13 140.996 116.423 149.703 105.781 149.703ZM105.781 115.843C97.8 115.843 91.2698 122.373 91.2698 130.354C91.2698 138.336 97.8 144.866 105.781 144.866C113.763 144.866 120.293 138.336 120.293 130.354C120.293 122.373 113.763 115.843 105.781 115.843Z" fill="#009B3E"/>
</g>
<defs>
<clipPath id="clip0_2414_9997">
<rect width="150" height="150" fill="white"/>
</clipPath>
</defs>
</svg>
