<svg width="151" height="150" viewBox="0 0 151 150" fill="none" xmlns="http://www.w3.org/2000/svg">
<circle cx="76" cy="74" r="53.5" stroke="#009B3E" stroke-width="3"/>
<mask id="path-2-outside-1_2414_9816" maskUnits="userSpaceOnUse" x="1.5" y="26" width="149" height="97" fill="black">
<rect fill="white" x="1.5" y="26" width="149" height="97"/>
<path d="M146.445 73.6704L122.401 31.3627C121.637 30.1054 120.037 29.6418 118.719 30.2955L107.672 36.5918C106.305 37.379 105.828 39.1217 106.604 40.4945L108.814 44.9495C107.254 46.0218 105.352 46.4802 103.474 46.2388C101.729 45.9794 100.006 45.5852 98.3194 45.06C90.2185 42.8871 76.7063 39.2051 63.4514 45.06C60.9164 46.1168 58.5678 47.5706 56.4923 49.3683C55.2775 49.3683 52.8106 48.9265 50.269 48.558C47.6543 47.5088 45.285 45.9292 43.3098 43.9196L44.856 41.1945H44.8573C45.633 39.8204 45.1565 38.0777 43.7888 37.2918L32.742 30.9954C32.0832 30.6179 31.2998 30.5254 30.5704 30.7373C29.8345 30.9197 29.2065 31.4 28.8392 32.0626L4.86959 74.4065C4.49205 75.0653 4.39957 75.8499 4.61147 76.5793C4.79382 77.3152 5.27411 77.9419 5.93675 78.3092L16.9836 84.6055C17.4087 84.8508 17.8916 84.9779 18.3821 84.9741C18.639 85.0101 18.8997 85.0101 19.1552 84.9741C19.8924 84.7917 20.5191 84.3114 20.8863 83.6488L23.501 79.0834V79.0821C25.6687 81.942 28.0174 84.6607 30.5334 87.2201L29.9439 88.0664C29.0848 89.298 28.6225 90.7632 28.6187 92.2646C28.6212 94.6276 29.7577 96.8468 31.6751 98.2299C32.8899 99.1276 34.3629 99.6053 35.8733 99.5924H36.1674C36.0557 100.324 36.0557 101.069 36.1674 101.801C36.5051 103.702 37.5762 105.395 39.1493 106.514C40.368 107.404 41.8384 107.882 43.3475 107.877C44.0962 107.879 44.8411 107.768 45.5564 107.546C45.9725 109.667 47.2991 111.498 49.1842 112.554C51.0707 113.611 53.3259 113.785 55.351 113.032C55.771 114.741 56.7906 116.243 58.2225 117.266C59.4451 118.143 60.9155 118.608 62.4207 118.591H63.6729C65.5773 118.287 67.2764 117.223 68.3859 115.646V115.425C72.5687 117.621 77.1802 118.879 81.8995 119.107C83.5458 119.089 85.1768 118.791 86.723 118.224C89.3466 117.418 91.5527 115.622 92.8717 113.215H94.0866C96.149 113.229 98.1651 112.612 99.8681 111.448C101.838 110.038 103.226 107.955 103.771 105.593C106.069 105.351 108.195 104.26 109.736 102.537C110.887 101.234 111.752 99.704 112.276 98.0448C115.164 97.7867 117.823 96.3638 119.64 94.1063C120.795 92.3329 121.181 90.1665 120.708 88.1039C120.521 87.2589 120.198 86.4511 119.75 85.7101C123.111 84.1203 126.079 81.8062 128.44 78.9361L130.576 82.6179C130.952 83.2805 131.574 83.7698 132.307 83.9804C132.563 84.0164 132.823 84.0164 133.08 83.9804C133.568 83.9676 134.047 83.8404 134.479 83.6118L145.526 77.3155C146.188 76.9392 146.678 76.3176 146.888 75.5857C146.977 74.914 146.82 74.2347 146.446 73.6709L146.445 73.6704ZM21.7708 74.4062L18.089 80.6296L8.47947 75.4375L31.7505 34.6027L41.3601 40.089L21.7708 74.4062ZM38.8559 94.2164C37.6719 95.7536 35.4964 96.1081 33.8848 95.0255C32.313 93.8492 31.9405 91.6469 33.0385 90.0185L34.3638 88.1038L36.0577 85.7472C37.2365 84.1522 39.4672 83.7786 41.1021 84.901C42.5327 85.9489 43.0117 87.8675 42.2438 89.4664L38.8559 94.2164ZM46.8089 101.838L46.3299 102.501C45.8843 103.518 45.0033 104.28 43.9323 104.574C42.8612 104.868 41.7144 104.662 40.8129 104.015C39.9101 103.368 39.3477 102.348 39.2822 101.24C39.2167 100.13 39.6559 99.0516 40.4765 98.3029L41.8018 96.4986L44.8209 92.2645L48.7982 86.6681H48.7969C49.3081 85.8308 50.1312 85.2311 51.0854 85.0025C52.0395 84.7752 53.0451 84.937 53.8785 85.4533C54.6773 85.9978 55.2116 86.8531 55.3515 87.8098C55.4992 88.7524 55.2745 89.7169 54.7261 90.4977L53.4009 92.3751L46.8089 101.838ZM56.5664 106.92L55.6829 108.135C55.2308 109.156 54.3383 109.917 53.2583 110.202C52.1782 110.489 51.0263 110.269 50.1287 109.605C49.2297 108.941 48.6814 107.905 48.6377 106.788C48.5927 105.672 49.0589 104.596 49.9027 103.864L56.4932 94.5851V94.5838C57.4115 93.5371 58.8408 93.0967 60.1891 93.4473C61.5376 93.7978 62.5713 94.8792 62.8628 96.2404C63.0503 97.1856 62.8217 98.1642 62.2374 98.9295L60.0286 102.059L56.5664 106.92ZM68.9385 108.356L66.6192 111.559L66.3251 112L65.4044 113.252C64.2139 114.476 62.3377 114.722 60.8724 113.844C59.4072 112.967 58.7368 111.198 59.2543 109.571L59.5484 109.092L63.0467 104.195H63.048C64.2423 102.668 66.4164 102.33 68.0178 103.422C69.6128 104.601 69.9878 106.83 68.8654 108.466L68.9385 108.356ZM116.437 92.1542C115.031 93.6079 113.119 94.4645 111.098 94.548L89.3369 80.924C88.4829 80.3769 87.3463 80.6235 86.7967 81.4762C86.527 81.8884 86.4371 82.3931 86.5488 82.8721C86.6593 83.3524 86.9624 83.7659 87.3862 84.0163L108.595 97.3451V97.3464C108.217 98.4097 107.628 99.387 106.864 100.218C105.743 101.403 104.188 102.081 102.556 102.095L83.3357 91.3441C82.4406 90.8458 81.3118 91.1669 80.8135 92.0619C80.3152 92.957 80.6363 94.0858 81.5314 94.5841L99.9417 104.856V104.858C99.622 106.346 98.7538 107.66 97.5107 108.539C95.9145 109.589 93.947 109.91 92.0991 109.423H91.8782C91.7639 109.314 91.6406 109.215 91.5096 109.129L76.781 101.765V101.764C75.891 101.394 74.8662 101.773 74.4309 102.634C73.9956 103.494 74.2986 104.544 75.1244 105.041L89.2264 112.148C88.3416 113.453 87.0458 114.425 85.5447 114.909C80.4812 115.825 75.2556 114.898 70.816 112.295L71.9949 110.492C73.1122 108.909 73.5616 106.952 73.247 105.041C72.9504 103.412 72.1143 101.928 70.8712 100.833C69.6281 99.7363 68.0524 99.0916 66.3985 99.003C66.7298 97.8935 66.8056 96.7223 66.6194 95.578C66.2906 93.6825 65.2337 91.9913 63.6734 90.865C62.3443 89.9185 60.739 89.4382 59.108 89.5037C59.2171 88.7948 59.2171 88.0757 59.108 87.3681C58.7497 85.4828 57.6709 83.8136 56.1004 82.7116C54.5311 81.611 52.5932 81.1654 50.6989 81.471C48.806 81.7767 47.1069 82.8092 45.9628 84.3476L45.6315 84.7894V84.7907C45.1255 83.6439 44.3101 82.6615 43.275 81.9552C41.6954 80.8521 39.7474 80.4116 37.8479 80.7288C35.9485 81.046 34.2483 82.0939 33.1118 83.6491L32.8177 84.0176V84.0163C30.1787 81.3067 27.7194 78.4288 25.4529 75.4006L41.5068 47.1956C43.8646 49.538 46.7412 51.2922 49.9029 52.3143L53.5846 52.8293C51.6647 55.3065 50.3086 58.1703 49.6073 61.2241C48.9421 63.9928 49.7653 66.908 51.7802 68.9203C53.7001 70.8607 56.4739 71.6929 59.1437 71.1291C61.951 70.5602 64.4745 69.0384 66.2876 66.8218L69.9693 61.9249L75.1614 60.5624V60.5611C89.6744 67.0554 103.1 75.7494 114.964 86.3363H115.185C115.291 86.4634 115.416 86.5739 115.553 86.6676C116.303 87.2198 116.816 88.0353 116.989 88.9497C117.247 90.049 117.048 91.2047 116.437 92.1538L116.437 92.1542ZM116.916 82.9862C104.783 72.1977 91.028 63.388 76.157 56.8796C75.8167 56.8064 75.4648 56.8064 75.1258 56.8796C74.8818 56.8449 74.6339 56.8449 74.3887 56.8796L68.6818 58.3899C68.0718 58.5645 67.5311 58.9241 67.1356 59.4198L63.4538 64.5014C62.1542 66.0411 60.3794 67.1032 58.4094 67.5205C56.9403 67.83 55.4146 67.3729 54.3591 66.3057C53.2419 65.173 52.7834 63.5472 53.1443 61.9983C53.9572 58.4257 55.8616 55.196 58.5931 52.756C60.5733 50.9966 62.8245 49.5673 65.258 48.5219C77.2615 43.2566 90.038 46.7176 97.6599 48.7801V48.7788C99.5477 49.3682 101.482 49.7997 103.441 50.0681C106.027 50.3429 108.627 49.7188 110.805 48.3011L126.344 75.6224V75.6211C123.957 78.929 120.673 81.4848 116.881 82.9859L116.916 82.9862ZM133.264 80.2611L129.804 74.1857L113.566 45.6492L110.068 39.5005L119.64 33.9041L142.837 74.7751L133.264 80.2611Z"/>
</mask>
<path d="M146.445 73.6704L122.401 31.3627C121.637 30.1054 120.037 29.6418 118.719 30.2955L107.672 36.5918C106.305 37.379 105.828 39.1217 106.604 40.4945L108.814 44.9495C107.254 46.0218 105.352 46.4802 103.474 46.2388C101.729 45.9794 100.006 45.5852 98.3194 45.06C90.2185 42.8871 76.7063 39.2051 63.4514 45.06C60.9164 46.1168 58.5678 47.5706 56.4923 49.3683C55.2775 49.3683 52.8106 48.9265 50.269 48.558C47.6543 47.5088 45.285 45.9292 43.3098 43.9196L44.856 41.1945H44.8573C45.633 39.8204 45.1565 38.0777 43.7888 37.2918L32.742 30.9954C32.0832 30.6179 31.2998 30.5254 30.5704 30.7373C29.8345 30.9197 29.2065 31.4 28.8392 32.0626L4.86959 74.4065C4.49205 75.0653 4.39957 75.8499 4.61147 76.5793C4.79382 77.3152 5.27411 77.9419 5.93675 78.3092L16.9836 84.6055C17.4087 84.8508 17.8916 84.9779 18.3821 84.9741C18.639 85.0101 18.8997 85.0101 19.1552 84.9741C19.8924 84.7917 20.5191 84.3114 20.8863 83.6488L23.501 79.0834V79.0821C25.6687 81.942 28.0174 84.6607 30.5334 87.2201L29.9439 88.0664C29.0848 89.298 28.6225 90.7632 28.6187 92.2646C28.6212 94.6276 29.7577 96.8468 31.6751 98.2299C32.8899 99.1276 34.3629 99.6053 35.8733 99.5924H36.1674C36.0557 100.324 36.0557 101.069 36.1674 101.801C36.5051 103.702 37.5762 105.395 39.1493 106.514C40.368 107.404 41.8384 107.882 43.3475 107.877C44.0962 107.879 44.8411 107.768 45.5564 107.546C45.9725 109.667 47.2991 111.498 49.1842 112.554C51.0707 113.611 53.3259 113.785 55.351 113.032C55.771 114.741 56.7906 116.243 58.2225 117.266C59.4451 118.143 60.9155 118.608 62.4207 118.591H63.6729C65.5773 118.287 67.2764 117.223 68.3859 115.646V115.425C72.5687 117.621 77.1802 118.879 81.8995 119.107C83.5458 119.089 85.1768 118.791 86.723 118.224C89.3466 117.418 91.5527 115.622 92.8717 113.215H94.0866C96.149 113.229 98.1651 112.612 99.8681 111.448C101.838 110.038 103.226 107.955 103.771 105.593C106.069 105.351 108.195 104.26 109.736 102.537C110.887 101.234 111.752 99.704 112.276 98.0448C115.164 97.7867 117.823 96.3638 119.64 94.1063C120.795 92.3329 121.181 90.1665 120.708 88.1039C120.521 87.2589 120.198 86.4511 119.75 85.7101C123.111 84.1203 126.079 81.8062 128.44 78.9361L130.576 82.6179C130.952 83.2805 131.574 83.7698 132.307 83.9804C132.563 84.0164 132.823 84.0164 133.08 83.9804C133.568 83.9676 134.047 83.8404 134.479 83.6118L145.526 77.3155C146.188 76.9392 146.678 76.3176 146.888 75.5857C146.977 74.914 146.82 74.2347 146.446 73.6709L146.445 73.6704ZM21.7708 74.4062L18.089 80.6296L8.47947 75.4375L31.7505 34.6027L41.3601 40.089L21.7708 74.4062ZM38.8559 94.2164C37.6719 95.7536 35.4964 96.1081 33.8848 95.0255C32.313 93.8492 31.9405 91.6469 33.0385 90.0185L34.3638 88.1038L36.0577 85.7472C37.2365 84.1522 39.4672 83.7786 41.1021 84.901C42.5327 85.9489 43.0117 87.8675 42.2438 89.4664L38.8559 94.2164ZM46.8089 101.838L46.3299 102.501C45.8843 103.518 45.0033 104.28 43.9323 104.574C42.8612 104.868 41.7144 104.662 40.8129 104.015C39.9101 103.368 39.3477 102.348 39.2822 101.24C39.2167 100.13 39.6559 99.0516 40.4765 98.3029L41.8018 96.4986L44.8209 92.2645L48.7982 86.6681H48.7969C49.3081 85.8308 50.1312 85.2311 51.0854 85.0025C52.0395 84.7752 53.0451 84.937 53.8785 85.4533C54.6773 85.9978 55.2116 86.8531 55.3515 87.8098C55.4992 88.7524 55.2745 89.7169 54.7261 90.4977L53.4009 92.3751L46.8089 101.838ZM56.5664 106.92L55.6829 108.135C55.2308 109.156 54.3383 109.917 53.2583 110.202C52.1782 110.489 51.0263 110.269 50.1287 109.605C49.2297 108.941 48.6814 107.905 48.6377 106.788C48.5927 105.672 49.0589 104.596 49.9027 103.864L56.4932 94.5851V94.5838C57.4115 93.5371 58.8408 93.0967 60.1891 93.4473C61.5376 93.7978 62.5713 94.8792 62.8628 96.2404C63.0503 97.1856 62.8217 98.1642 62.2374 98.9295L60.0286 102.059L56.5664 106.92ZM68.9385 108.356L66.6192 111.559L66.3251 112L65.4044 113.252C64.2139 114.476 62.3377 114.722 60.8724 113.844C59.4072 112.967 58.7368 111.198 59.2543 109.571L59.5484 109.092L63.0467 104.195H63.048C64.2423 102.668 66.4164 102.33 68.0178 103.422C69.6128 104.601 69.9878 106.83 68.8654 108.466L68.9385 108.356ZM116.437 92.1542C115.031 93.6079 113.119 94.4645 111.098 94.548L89.3369 80.924C88.4829 80.3769 87.3463 80.6235 86.7967 81.4762C86.527 81.8884 86.4371 82.3931 86.5488 82.8721C86.6593 83.3524 86.9624 83.7659 87.3862 84.0163L108.595 97.3451V97.3464C108.217 98.4097 107.628 99.387 106.864 100.218C105.743 101.403 104.188 102.081 102.556 102.095L83.3357 91.3441C82.4406 90.8458 81.3118 91.1669 80.8135 92.0619C80.3152 92.957 80.6363 94.0858 81.5314 94.5841L99.9417 104.856V104.858C99.622 106.346 98.7538 107.66 97.5107 108.539C95.9145 109.589 93.947 109.91 92.0991 109.423H91.8782C91.7639 109.314 91.6406 109.215 91.5096 109.129L76.781 101.765V101.764C75.891 101.394 74.8662 101.773 74.4309 102.634C73.9956 103.494 74.2986 104.544 75.1244 105.041L89.2264 112.148C88.3416 113.453 87.0458 114.425 85.5447 114.909C80.4812 115.825 75.2556 114.898 70.816 112.295L71.9949 110.492C73.1122 108.909 73.5616 106.952 73.247 105.041C72.9504 103.412 72.1143 101.928 70.8712 100.833C69.6281 99.7363 68.0524 99.0916 66.3985 99.003C66.7298 97.8935 66.8056 96.7223 66.6194 95.578C66.2906 93.6825 65.2337 91.9913 63.6734 90.865C62.3443 89.9185 60.739 89.4382 59.108 89.5037C59.2171 88.7948 59.2171 88.0757 59.108 87.3681C58.7497 85.4828 57.6709 83.8136 56.1004 82.7116C54.5311 81.611 52.5932 81.1654 50.6989 81.471C48.806 81.7767 47.1069 82.8092 45.9628 84.3476L45.6315 84.7894V84.7907C45.1255 83.6439 44.3101 82.6615 43.275 81.9552C41.6954 80.8521 39.7474 80.4116 37.8479 80.7288C35.9485 81.046 34.2483 82.0939 33.1118 83.6491L32.8177 84.0176V84.0163C30.1787 81.3067 27.7194 78.4288 25.4529 75.4006L41.5068 47.1956C43.8646 49.538 46.7412 51.2922 49.9029 52.3143L53.5846 52.8293C51.6647 55.3065 50.3086 58.1703 49.6073 61.2241C48.9421 63.9928 49.7653 66.908 51.7802 68.9203C53.7001 70.8607 56.4739 71.6929 59.1437 71.1291C61.951 70.5602 64.4745 69.0384 66.2876 66.8218L69.9693 61.9249L75.1614 60.5624V60.5611C89.6744 67.0554 103.1 75.7494 114.964 86.3363H115.185C115.291 86.4634 115.416 86.5739 115.553 86.6676C116.303 87.2198 116.816 88.0353 116.989 88.9497C117.247 90.049 117.048 91.2047 116.437 92.1538L116.437 92.1542ZM116.916 82.9862C104.783 72.1977 91.028 63.388 76.157 56.8796C75.8167 56.8064 75.4648 56.8064 75.1258 56.8796C74.8818 56.8449 74.6339 56.8449 74.3887 56.8796L68.6818 58.3899C68.0718 58.5645 67.5311 58.9241 67.1356 59.4198L63.4538 64.5014C62.1542 66.0411 60.3794 67.1032 58.4094 67.5205C56.9403 67.83 55.4146 67.3729 54.3591 66.3057C53.2419 65.173 52.7834 63.5472 53.1443 61.9983C53.9572 58.4257 55.8616 55.196 58.5931 52.756C60.5733 50.9966 62.8245 49.5673 65.258 48.5219C77.2615 43.2566 90.038 46.7176 97.6599 48.7801V48.7788C99.5477 49.3682 101.482 49.7997 103.441 50.0681C106.027 50.3429 108.627 49.7188 110.805 48.3011L126.344 75.6224V75.6211C123.957 78.929 120.673 81.4848 116.881 82.9859L116.916 82.9862ZM133.264 80.2611L129.804 74.1857L113.566 45.6492L110.068 39.5005L119.64 33.9041L142.837 74.7751L133.264 80.2611Z" fill="#393D38"/>
<path d="M146.445 73.6704L122.401 31.3627C121.637 30.1054 120.037 29.6418 118.719 30.2955L107.672 36.5918C106.305 37.379 105.828 39.1217 106.604 40.4945L108.814 44.9495C107.254 46.0218 105.352 46.4802 103.474 46.2388C101.729 45.9794 100.006 45.5852 98.3194 45.06C90.2185 42.8871 76.7063 39.2051 63.4514 45.06C60.9164 46.1168 58.5678 47.5706 56.4923 49.3683C55.2775 49.3683 52.8106 48.9265 50.269 48.558C47.6543 47.5088 45.285 45.9292 43.3098 43.9196L44.856 41.1945H44.8573C45.633 39.8204 45.1565 38.0777 43.7888 37.2918L32.742 30.9954C32.0832 30.6179 31.2998 30.5254 30.5704 30.7373C29.8345 30.9197 29.2065 31.4 28.8392 32.0626L4.86959 74.4065C4.49205 75.0653 4.39957 75.8499 4.61147 76.5793C4.79382 77.3152 5.27411 77.9419 5.93675 78.3092L16.9836 84.6055C17.4087 84.8508 17.8916 84.9779 18.3821 84.9741C18.639 85.0101 18.8997 85.0101 19.1552 84.9741C19.8924 84.7917 20.5191 84.3114 20.8863 83.6488L23.501 79.0834V79.0821C25.6687 81.942 28.0174 84.6607 30.5334 87.2201L29.9439 88.0664C29.0848 89.298 28.6225 90.7632 28.6187 92.2646C28.6212 94.6276 29.7577 96.8468 31.6751 98.2299C32.8899 99.1276 34.3629 99.6053 35.8733 99.5924H36.1674C36.0557 100.324 36.0557 101.069 36.1674 101.801C36.5051 103.702 37.5762 105.395 39.1493 106.514C40.368 107.404 41.8384 107.882 43.3475 107.877C44.0962 107.879 44.8411 107.768 45.5564 107.546C45.9725 109.667 47.2991 111.498 49.1842 112.554C51.0707 113.611 53.3259 113.785 55.351 113.032C55.771 114.741 56.7906 116.243 58.2225 117.266C59.4451 118.143 60.9155 118.608 62.4207 118.591H63.6729C65.5773 118.287 67.2764 117.223 68.3859 115.646V115.425C72.5687 117.621 77.1802 118.879 81.8995 119.107C83.5458 119.089 85.1768 118.791 86.723 118.224C89.3466 117.418 91.5527 115.622 92.8717 113.215H94.0866C96.149 113.229 98.1651 112.612 99.8681 111.448C101.838 110.038 103.226 107.955 103.771 105.593C106.069 105.351 108.195 104.26 109.736 102.537C110.887 101.234 111.752 99.704 112.276 98.0448C115.164 97.7867 117.823 96.3638 119.64 94.1063C120.795 92.3329 121.181 90.1665 120.708 88.1039C120.521 87.2589 120.198 86.4511 119.75 85.7101C123.111 84.1203 126.079 81.8062 128.44 78.9361L130.576 82.6179C130.952 83.2805 131.574 83.7698 132.307 83.9804C132.563 84.0164 132.823 84.0164 133.08 83.9804C133.568 83.9676 134.047 83.8404 134.479 83.6118L145.526 77.3155C146.188 76.9392 146.678 76.3176 146.888 75.5857C146.977 74.914 146.82 74.2347 146.446 73.6709L146.445 73.6704ZM21.7708 74.4062L18.089 80.6296L8.47947 75.4375L31.7505 34.6027L41.3601 40.089L21.7708 74.4062ZM38.8559 94.2164C37.6719 95.7536 35.4964 96.1081 33.8848 95.0255C32.313 93.8492 31.9405 91.6469 33.0385 90.0185L34.3638 88.1038L36.0577 85.7472C37.2365 84.1522 39.4672 83.7786 41.1021 84.901C42.5327 85.9489 43.0117 87.8675 42.2438 89.4664L38.8559 94.2164ZM46.8089 101.838L46.3299 102.501C45.8843 103.518 45.0033 104.28 43.9323 104.574C42.8612 104.868 41.7144 104.662 40.8129 104.015C39.9101 103.368 39.3477 102.348 39.2822 101.24C39.2167 100.13 39.6559 99.0516 40.4765 98.3029L41.8018 96.4986L44.8209 92.2645L48.7982 86.6681H48.7969C49.3081 85.8308 50.1312 85.2311 51.0854 85.0025C52.0395 84.7752 53.0451 84.937 53.8785 85.4533C54.6773 85.9978 55.2116 86.8531 55.3515 87.8098C55.4992 88.7524 55.2745 89.7169 54.7261 90.4977L53.4009 92.3751L46.8089 101.838ZM56.5664 106.92L55.6829 108.135C55.2308 109.156 54.3383 109.917 53.2583 110.202C52.1782 110.489 51.0263 110.269 50.1287 109.605C49.2297 108.941 48.6814 107.905 48.6377 106.788C48.5927 105.672 49.0589 104.596 49.9027 103.864L56.4932 94.5851V94.5838C57.4115 93.5371 58.8408 93.0967 60.1891 93.4473C61.5376 93.7978 62.5713 94.8792 62.8628 96.2404C63.0503 97.1856 62.8217 98.1642 62.2374 98.9295L60.0286 102.059L56.5664 106.92ZM68.9385 108.356L66.6192 111.559L66.3251 112L65.4044 113.252C64.2139 114.476 62.3377 114.722 60.8724 113.844C59.4072 112.967 58.7368 111.198 59.2543 109.571L59.5484 109.092L63.0467 104.195H63.048C64.2423 102.668 66.4164 102.33 68.0178 103.422C69.6128 104.601 69.9878 106.83 68.8654 108.466L68.9385 108.356ZM116.437 92.1542C115.031 93.6079 113.119 94.4645 111.098 94.548L89.3369 80.924C88.4829 80.3769 87.3463 80.6235 86.7967 81.4762C86.527 81.8884 86.4371 82.3931 86.5488 82.8721C86.6593 83.3524 86.9624 83.7659 87.3862 84.0163L108.595 97.3451V97.3464C108.217 98.4097 107.628 99.387 106.864 100.218C105.743 101.403 104.188 102.081 102.556 102.095L83.3357 91.3441C82.4406 90.8458 81.3118 91.1669 80.8135 92.0619C80.3152 92.957 80.6363 94.0858 81.5314 94.5841L99.9417 104.856V104.858C99.622 106.346 98.7538 107.66 97.5107 108.539C95.9145 109.589 93.947 109.91 92.0991 109.423H91.8782C91.7639 109.314 91.6406 109.215 91.5096 109.129L76.781 101.765V101.764C75.891 101.394 74.8662 101.773 74.4309 102.634C73.9956 103.494 74.2986 104.544 75.1244 105.041L89.2264 112.148C88.3416 113.453 87.0458 114.425 85.5447 114.909C80.4812 115.825 75.2556 114.898 70.816 112.295L71.9949 110.492C73.1122 108.909 73.5616 106.952 73.247 105.041C72.9504 103.412 72.1143 101.928 70.8712 100.833C69.6281 99.7363 68.0524 99.0916 66.3985 99.003C66.7298 97.8935 66.8056 96.7223 66.6194 95.578C66.2906 93.6825 65.2337 91.9913 63.6734 90.865C62.3443 89.9185 60.739 89.4382 59.108 89.5037C59.2171 88.7948 59.2171 88.0757 59.108 87.3681C58.7497 85.4828 57.6709 83.8136 56.1004 82.7116C54.5311 81.611 52.5932 81.1654 50.6989 81.471C48.806 81.7767 47.1069 82.8092 45.9628 84.3476L45.6315 84.7894V84.7907C45.1255 83.6439 44.3101 82.6615 43.275 81.9552C41.6954 80.8521 39.7474 80.4116 37.8479 80.7288C35.9485 81.046 34.2483 82.0939 33.1118 83.6491L32.8177 84.0176V84.0163C30.1787 81.3067 27.7194 78.4288 25.4529 75.4006L41.5068 47.1956C43.8646 49.538 46.7412 51.2922 49.9029 52.3143L53.5846 52.8293C51.6647 55.3065 50.3086 58.1703 49.6073 61.2241C48.9421 63.9928 49.7653 66.908 51.7802 68.9203C53.7001 70.8607 56.4739 71.6929 59.1437 71.1291C61.951 70.5602 64.4745 69.0384 66.2876 66.8218L69.9693 61.9249L75.1614 60.5624V60.5611C89.6744 67.0554 103.1 75.7494 114.964 86.3363H115.185C115.291 86.4634 115.416 86.5739 115.553 86.6676C116.303 87.2198 116.816 88.0353 116.989 88.9497C117.247 90.049 117.048 91.2047 116.437 92.1538L116.437 92.1542ZM116.916 82.9862C104.783 72.1977 91.028 63.388 76.157 56.8796C75.8167 56.8064 75.4648 56.8064 75.1258 56.8796C74.8818 56.8449 74.6339 56.8449 74.3887 56.8796L68.6818 58.3899C68.0718 58.5645 67.5311 58.9241 67.1356 59.4198L63.4538 64.5014C62.1542 66.0411 60.3794 67.1032 58.4094 67.5205C56.9403 67.83 55.4146 67.3729 54.3591 66.3057C53.2419 65.173 52.7834 63.5472 53.1443 61.9983C53.9572 58.4257 55.8616 55.196 58.5931 52.756C60.5733 50.9966 62.8245 49.5673 65.258 48.5219C77.2615 43.2566 90.038 46.7176 97.6599 48.7801V48.7788C99.5477 49.3682 101.482 49.7997 103.441 50.0681C106.027 50.3429 108.627 49.7188 110.805 48.3011L126.344 75.6224V75.6211C123.957 78.929 120.673 81.4848 116.881 82.9859L116.916 82.9862ZM133.264 80.2611L129.804 74.1857L113.566 45.6492L110.068 39.5005L119.64 33.9041L142.837 74.7751L133.264 80.2611Z" stroke="white" stroke-width="6" mask="url(#path-2-outside-1_2414_9816)"/>
</svg>
