<svg width="150" height="150" viewBox="0 0 150 150" fill="none" xmlns="http://www.w3.org/2000/svg">
<g clip-path="url(#clip0_2409_9430)">
<path d="M34.6612 73.1521C40.9665 74.9472 45.463 79.8933 47.1326 85.7805L78.8369 94.8056L78.8372 94.8061C79.2155 94.9097 79.5424 95.1498 79.7541 95.4799L85.4319 104.523C85.6825 104.92 85.7453 105.407 85.6033 105.854C85.4611 106.301 85.1286 106.662 84.6947 106.841L71.6166 112.196C70.8716 112.503 70.0146 112.204 69.623 111.499L67.1144 106.994L62.6094 109.502C61.8471 109.921 60.8899 109.648 60.4624 108.891L57.9539 104.385L53.4489 106.894L53.4487 106.894C53.0831 107.1 52.6508 107.154 52.2463 107.042L41.893 104.094C37.3741 108.202 30.9578 110.058 24.6638 108.267C14.9847 105.511 9.34865 95.3886 12.1047 85.7105C14.8604 76.0315 24.9829 70.3954 34.6611 73.1515L34.6612 73.1521ZM33.7918 76.2058C25.7634 73.9201 17.4436 78.5524 15.1585 86.5805C12.8729 94.6089 17.5052 102.929 25.5333 105.214C31.0517 106.785 36.72 105.058 40.4628 101.237L40.4633 101.237C40.8704 100.828 41.468 100.672 42.0233 100.83L52.4719 103.805L57.8044 100.836C58.5668 100.417 59.524 100.689 59.9514 101.447L62.4597 105.952L66.9652 103.443C67.7275 103.025 68.685 103.298 69.1122 104.055L71.7058 108.713L81.7219 104.601L77.3954 97.6955L45.4995 88.6148L45.4993 88.6156C44.9403 88.4515 44.5165 87.9943 44.3943 87.4242C43.2255 82.2044 39.3097 77.7754 33.7916 76.2049L33.7918 76.2058ZM26.0575 83.0818C29.4123 84.0369 31.3808 87.5725 30.4257 90.9273C29.4706 94.2821 25.9345 96.2509 22.5802 95.2955C19.2254 94.3404 17.2566 90.8043 18.212 87.45C19.1671 84.0952 22.7027 82.1267 26.0575 83.0818ZM25.1881 86.1354C23.4834 85.6505 21.7507 86.6153 21.265 88.3197C20.7799 90.0239 21.7449 91.7571 23.4493 92.2428C25.1535 92.728 26.8867 91.7629 27.3724 90.0585C27.858 88.3541 26.893 86.6209 25.1881 86.1354Z" fill="#393D38"/>
<path d="M29.7083 77L19.625 78.3774L14.5833 80.673L10 87.1006V92.6101V101.333L16.875 110.057L24.2083 112.352L28.3333 123.83L36.5833 126.585L32.9167 133.472L40.25 136.686L36.5833 143.572L50.3333 150L54 139.899L41.625 110.057V104.547L43.9167 94.4465L42.5417 86.1824L40.25 83.4277L34.2917 78.3774L29.7083 77Z" fill="white"/>
<path d="M43.9371 87.2631C46.3524 93.3578 45.1668 99.9363 41.5134 104.845L53.6587 135.49L53.6585 135.491C53.8066 135.854 53.8153 136.259 53.6823 136.628L49.9658 146.639C49.8038 147.079 49.4555 147.425 49.0143 147.585C48.5733 147.744 48.0844 147.701 47.6782 147.465L35.4675 140.351C34.7698 139.948 34.4858 139.086 34.8062 138.346L36.8527 133.613L32.12 131.566C31.3236 131.217 30.9569 130.291 31.2976 129.491L33.3441 124.758L28.6113 122.711L28.6106 122.712C28.2245 122.547 27.9191 122.237 27.7616 121.848L23.796 111.84C17.7855 110.757 12.4064 106.797 9.99492 100.714C6.28732 91.3579 10.8853 80.7235 20.2407 77.0168C29.5964 73.3092 40.2308 77.9072 43.9375 87.2626L43.9371 87.2631ZM40.9854 88.4328C37.9101 80.6725 29.1696 76.8934 21.41 79.969C13.6497 83.0443 9.87057 91.7848 12.9462 99.5444C15.06 104.879 19.8809 108.324 25.1913 108.966L25.1918 108.966C25.7643 109.04 26.2518 109.419 26.4642 109.956L30.4666 120.056L36.0688 122.478C36.8651 122.828 37.2318 123.753 36.8912 124.553L34.8449 129.286L39.5782 131.332C40.3745 131.682 40.741 132.608 40.4006 133.408L38.2847 138.301L47.6451 143.743L50.4885 136.106L38.2707 105.276L38.2699 105.276C38.0597 104.733 38.1644 104.118 38.5422 103.674C41.9712 99.5686 43.1001 93.7655 40.9859 88.4321L40.9854 88.4328ZM30.8216 86.4842C32.1067 89.727 30.5007 93.4413 27.258 94.7264C24.0152 96.0115 20.3003 94.4053 19.0158 91.1628C17.7307 87.92 19.3369 84.2051 22.5794 82.9206C25.8222 81.6355 29.5365 83.2415 30.8216 86.4842ZM27.8699 87.654C27.2166 86.0065 25.3963 85.2194 23.7485 85.872C22.1013 86.5248 21.314 88.3456 21.9665 89.9934C22.6193 91.6407 24.4402 92.4279 26.0879 91.7754C27.7357 91.1228 28.523 89.302 27.8699 87.654Z" fill="#009B3E"/>
<path d="M141.168 2.25H49.3297C44.4605 2.25 40.499 6.21143 40.499 11.0806V67.5968C40.499 72.466 44.4605 76.4274 49.3297 76.4274H97.9424L100.305 94.1399C100.516 95.7312 101.158 97.236 102.162 98.4899L106.452 103.852C107.2 104.791 107.612 105.966 107.612 107.163V111.75H135.87V106.824C135.87 105.773 136.177 104.758 136.76 103.885L141.451 96.8492C142.422 95.3939 142.935 93.7002 142.935 91.9499V76.249C146.96 75.4278 149.999 71.862 149.999 67.5968V11.0806C149.999 6.21143 146.038 2.25 141.168 2.25ZM139.402 91.9499C139.402 93.0008 139.095 94.0163 138.512 94.8888L133.821 101.925C132.85 103.38 132.338 105.074 132.338 106.824V108.218H111.144V107.163C111.144 105.168 110.455 103.207 109.209 101.646L104.919 96.284C104.316 95.5316 103.931 94.6291 103.804 93.6737L100.56 69.3505C100.553 69.2817 100.547 69.2128 100.547 69.1439C100.547 68.2909 101.241 67.5968 102.093 67.5968H103.006C103.774 67.5968 104.415 68.1478 104.532 68.9072L107.096 85.5671C107.541 88.4583 109.986 90.5564 112.91 90.5564H114.676V44.6371C114.676 43.664 115.468 42.871 116.443 42.871C117.417 42.871 118.209 43.664 118.209 44.6371V62.2984V76.4274V83.4919H121.741V76.4274V62.2984C121.741 61.3252 122.532 60.5323 123.507 60.5323C124.482 60.5323 125.273 61.3252 125.273 62.2984V65.8306V83.4919H128.805V65.8306C128.805 64.8575 129.597 64.0645 130.572 64.0645C131.547 64.0645 132.338 64.8575 132.338 65.8306V71.129V79.9597V83.4919H135.87V79.9597V71.129C135.87 70.1559 136.661 69.3629 137.636 69.3629C138.611 69.3629 139.402 70.1559 139.402 71.129V91.9499ZM116.443 39.3387C113.521 39.3387 111.144 41.7159 111.144 44.6371V48.1658C108.965 46.5269 107.612 43.9289 107.612 41.1048C107.612 36.2356 111.573 32.2742 116.443 32.2742C121.312 32.2742 125.273 36.2356 125.273 41.1048C125.273 43.9289 123.92 46.5251 121.741 48.1641V44.6371C121.741 41.7159 119.364 39.3387 116.443 39.3387ZM146.467 67.5968C146.467 69.8963 144.985 71.839 142.935 72.5702V71.129C142.935 68.2079 140.557 65.8306 137.636 65.8306C137.014 65.8306 136.425 65.9578 135.87 66.1556V65.8306C135.87 62.9095 133.493 60.5323 130.572 60.5323C129.874 60.5323 129.212 60.6753 128.601 60.9208C127.991 58.669 125.95 57 123.507 57C122.885 57 122.296 57.1272 121.741 57.325V52.2403C126.003 50.2092 128.805 45.8999 128.805 41.1048C128.805 34.2876 123.258 28.7419 116.443 28.7419C109.627 28.7419 104.08 34.2876 104.08 41.1048C104.08 45.8999 106.883 50.2075 111.144 52.2403V86.2312C110.856 85.9027 110.658 85.493 110.588 85.0302L108.023 68.3703C107.64 65.8748 105.528 64.0645 103.006 64.0645H102.093C99.2935 64.0645 97.0152 66.3428 97.0152 69.1439C97.0152 69.3664 97.031 69.589 97.0593 69.8133L97.4708 72.8952H49.3297C46.4085 72.8952 44.0313 70.5179 44.0313 67.5968V11.0806C44.0313 8.15947 46.4085 5.78226 49.3297 5.78226H141.168C144.09 5.78226 146.467 8.15947 146.467 11.0806V67.5968Z" fill="#363636"/>
<path d="M83.5748 37.9496L77.5876 36.2399V35.77C79.7882 34.1115 81.1199 31.5027 81.1199 28.742V25.5768C81.1199 20.8291 77.5858 16.8055 73.0751 16.4133C70.5973 16.1943 68.1406 17.0315 66.3232 18.6989C64.5024 20.3663 63.4586 22.7402 63.4586 25.2077V28.7402C63.4586 31.5009 64.7902 34.1115 66.9908 35.7683V36.2381L61.0037 37.9496C57.2489 39.0218 54.6279 42.4978 54.6279 46.4031V48.1694H89.9505V46.4031C89.9505 42.4978 87.3296 39.0218 83.5748 37.9496ZM58.4693 44.6368C59.0309 43.0736 60.3184 41.8196 61.9733 41.3462L70.5231 38.9034V33.8095L69.6453 33.299C67.9834 32.3311 66.9908 30.6266 66.9908 28.7402V25.2077C66.9908 23.7275 67.616 22.3021 68.711 21.3007C69.8166 20.2868 71.2649 19.8064 72.7696 19.93C75.4718 20.1649 77.5876 22.643 77.5876 25.5751V28.7402C77.5876 30.6266 76.595 32.3311 74.9331 33.299L74.0553 33.8095V38.9034L82.6052 41.3462C84.2618 41.8196 85.5475 43.0736 86.1092 44.6368H58.4693Z" fill="#009B3E"/>
<path d="M47.5635 55.2338H97.0151V9.31445H47.5635V55.2338ZM51.0957 12.8467H93.4828V51.7016H51.0957V12.8467Z" fill="#363636"/>
<path d="M52.8619 58.7661C49.9407 58.7661 47.5635 61.1433 47.5635 64.0645C47.5635 66.9857 49.9407 69.3629 52.8619 69.3629C55.783 69.3629 58.1603 66.9857 58.1603 64.0645C58.1603 61.1433 55.783 58.7661 52.8619 58.7661ZM52.8619 65.8306C51.887 65.8306 51.0957 65.0376 51.0957 64.0645C51.0957 63.0914 51.887 62.2984 52.8619 62.2984C53.8368 62.2984 54.628 63.0914 54.628 64.0645C54.628 65.0376 53.8368 65.8306 52.8619 65.8306Z" fill="#363636"/>
<path d="M66.9917 58.7661C64.0706 58.7661 61.6934 61.1433 61.6934 64.0645C61.6934 66.9857 64.0706 69.3629 66.9917 69.3629C69.9129 69.3629 72.2901 66.9857 72.2901 64.0645C72.2901 61.1433 69.9129 58.7661 66.9917 58.7661ZM66.9917 65.8306C66.0168 65.8306 65.2256 65.0376 65.2256 64.0645C65.2256 63.0914 66.0168 62.2984 66.9917 62.2984C67.9667 62.2984 68.7579 63.0914 68.7579 64.0645C68.7579 65.0376 67.9667 65.8306 66.9917 65.8306Z" fill="#363636"/>
<path d="M81.1207 58.7661C78.1995 58.7661 75.8223 61.1433 75.8223 64.0645C75.8223 66.9857 78.1995 69.3629 81.1207 69.3629C84.0418 69.3629 86.419 66.9857 86.419 64.0645C86.419 61.1433 84.0418 58.7661 81.1207 58.7661ZM81.1207 65.8306C80.1457 65.8306 79.3545 65.0376 79.3545 64.0645C79.3545 63.0914 80.1457 62.2984 81.1207 62.2984C82.0956 62.2984 82.8868 63.0914 82.8868 64.0645C82.8868 65.0376 82.0956 65.8306 81.1207 65.8306Z" fill="#363636"/>
<path d="M137.636 9.31445C134.715 9.31445 132.338 11.6917 132.338 14.6128C132.338 17.534 134.715 19.9112 137.636 19.9112C140.557 19.9112 142.935 17.534 142.935 14.6128C142.935 11.6917 140.557 9.31445 137.636 9.31445ZM137.636 16.379C136.661 16.379 135.87 15.586 135.87 14.6128C135.87 13.6397 136.661 12.8467 137.636 12.8467C138.611 12.8467 139.402 13.6397 139.402 14.6128C139.402 15.586 138.611 16.379 137.636 16.379Z" fill="#363636"/>
<path d="M123.507 9.31445C120.586 9.31445 118.209 11.6917 118.209 14.6128C118.209 17.534 120.586 19.9112 123.507 19.9112C126.429 19.9112 128.806 17.534 128.806 14.6128C128.806 11.6917 126.429 9.31445 123.507 9.31445ZM123.507 16.379C122.532 16.379 121.741 15.586 121.741 14.6128C121.741 13.6397 122.532 12.8467 123.507 12.8467C124.482 12.8467 125.274 13.6397 125.274 14.6128C125.274 15.586 124.482 16.379 123.507 16.379Z" fill="#363636"/>
<path d="M109.378 9.31445C106.457 9.31445 104.08 11.6917 104.08 14.6128C104.08 17.534 106.457 19.9112 109.378 19.9112C112.3 19.9112 114.677 17.534 114.677 14.6128C114.677 11.6917 112.3 9.31445 109.378 9.31445ZM109.378 16.379C108.404 16.379 107.612 15.586 107.612 14.6128C107.612 13.6397 108.404 12.8467 109.378 12.8467C110.353 12.8467 111.145 13.6397 111.145 14.6128C111.145 15.586 110.353 16.379 109.378 16.379Z" fill="#363636"/>
</g>
<defs>
<clipPath id="clip0_2409_9430">
<rect width="150" height="150" fill="white"/>
</clipPath>
</defs>
</svg>
