<svg width="150" height="150" viewBox="0 0 150 150" fill="none" xmlns="http://www.w3.org/2000/svg">
<path d="M135.239 113.244C136.254 113.244 137.246 112.943 138.09 112.379C138.934 111.815 139.591 111.014 139.979 110.076C140.368 109.139 140.469 108.107 140.271 107.112C140.073 106.117 139.585 105.202 138.867 104.485C138.15 103.767 137.235 103.278 136.24 103.081C135.245 102.883 134.213 102.984 133.276 103.372C132.338 103.761 131.537 104.418 130.973 105.262C130.409 106.106 130.108 107.098 130.108 108.113C130.108 108.787 130.241 109.454 130.499 110.076C130.757 110.699 131.135 111.264 131.611 111.741C132.088 112.217 132.653 112.595 133.276 112.853C133.898 113.111 134.565 113.244 135.239 113.244ZM135.239 106.402C135.577 106.402 135.908 106.503 136.189 106.691C136.471 106.879 136.69 107.146 136.819 107.458C136.949 107.771 136.983 108.115 136.917 108.446C136.851 108.778 136.688 109.083 136.449 109.322C136.209 109.561 135.905 109.724 135.573 109.79C135.241 109.856 134.897 109.822 134.585 109.693C134.272 109.563 134.005 109.344 133.817 109.063C133.629 108.782 133.529 108.451 133.529 108.113C133.529 107.659 133.709 107.224 134.03 106.903C134.351 106.583 134.786 106.402 135.239 106.402Z" fill="#009B3E"/>
<path d="M51.4359 104.692C50.9823 104.692 50.5473 104.873 50.2265 105.193C49.9058 105.514 49.7256 105.949 49.7256 106.403V116.664C49.7256 117.118 49.9058 117.553 50.2265 117.874C50.5473 118.194 50.9823 118.375 51.4359 118.375H99.3236C99.7772 118.375 100.212 118.194 100.533 117.874C100.854 117.553 101.034 117.118 101.034 116.664V106.403C101.034 105.949 100.854 105.514 100.533 105.193C100.212 104.873 99.7772 104.692 99.3236 104.692H51.4359ZM97.6134 114.954H53.1461V108.113H97.6134V114.954Z" fill="#363636"/>
<path d="M111.294 104.692H114.715V108.113H111.294V104.692Z" fill="#009B3E"/>
<path d="M118.136 104.692H121.556V108.113H118.136V104.692Z" fill="#009B3E"/>
<path d="M111.294 114.954H114.715V118.375H111.294V114.954Z" fill="#009B3E"/>
<path d="M118.136 114.954H121.556V118.375H118.136V114.954Z" fill="#009B3E"/>
<path d="M87.351 97.8513H48.0146C46.6538 97.8513 45.3488 98.3919 44.3866 99.3541C43.4244 100.316 42.8838 101.621 42.8838 102.982V120.085C42.8838 121.446 43.4244 122.751 44.3866 123.713C45.3488 124.675 46.6538 125.216 48.0146 125.216H53.52L54.907 130.76C54.9994 131.131 55.2128 131.459 55.5134 131.694C55.814 131.929 56.1845 132.057 56.566 132.057H63.4071C63.7886 132.057 64.1591 131.929 64.4597 131.694C64.7603 131.459 64.9738 131.131 65.0661 130.76L66.4531 125.216H121.931L123.318 130.76C123.41 131.131 123.624 131.459 123.924 131.694C124.225 131.929 124.596 132.057 124.977 132.057H131.818C132.2 132.057 132.57 131.929 132.871 131.694C133.171 131.459 133.385 131.131 133.477 130.76L134.864 125.216H140.37C141.73 125.216 143.035 124.675 143.998 123.713C144.96 122.751 145.5 121.446 145.5 120.085V102.982C145.5 101.621 144.96 100.316 143.998 99.3541C143.035 98.3919 141.73 97.8513 140.37 97.8513H87.351ZM62.0714 128.636H57.9017L57.0466 125.216H62.9265L62.0714 128.636ZM130.482 128.636H126.313L125.458 125.216H131.338L130.482 128.636ZM142.08 102.982V120.085C142.08 120.539 141.9 120.974 141.579 121.294C141.258 121.615 140.823 121.795 140.37 121.795H48.0146C47.561 121.795 47.126 121.615 46.8053 121.294C46.4845 120.974 46.3043 120.539 46.3043 120.085V102.982C46.3043 102.529 46.4845 102.094 46.8053 101.773C47.126 101.452 47.561 101.272 48.0146 101.272H140.37C140.823 101.272 141.258 101.452 141.579 101.773C141.9 102.094 142.08 102.529 142.08 102.982Z" fill="#363636"/>
<path d="M56.4612 18.0013C48.3937 17.9759 40.5431 20.6088 34.1217 25.4931C28.1514 30.0325 23.6846 36.2622 21.3003 43.3729L10.0818 43.3729C8.60222 43.3751 7.18363 43.9637 6.13755 45.0105C5.09079 46.0565 4.50217 47.4751 4.5 48.9547L4.5 61.133C4.50217 62.6126 5.09079 64.0311 6.13755 65.0772C7.18358 66.124 8.60217 66.7126 10.0818 66.7148L21.3003 66.7148C23.6846 73.8253 28.1514 80.0552 34.1217 84.5946C38.9728 88.2604 44.6508 90.6764 50.6568 91.629C56.6618 92.5815 62.809 92.0414 68.556 90.0566L124.428 90.0566C125.37 90.0559 126.273 89.6811 126.938 89.0149C127.605 88.3495 127.979 87.4463 127.98 86.5047L127.98 86.4032L134.577 86.4032C135.418 86.4032 136.099 85.7218 136.099 84.8809C136.099 84.04 135.418 83.3586 134.577 83.3586L127.98 83.3586L127.98 82.4452C127.979 81.5036 127.605 80.6003 126.938 79.935C126.273 79.2688 125.37 78.894 124.428 78.8933L84.7751 78.8933C90.4082 72.2235 93.4993 63.7747 93.4993 55.0432C93.4993 46.3117 90.4084 37.8638 84.7751 31.1931L124.167 31.1931C125.109 31.1924 126.012 30.8176 126.677 30.1514C127.344 29.4859 127.718 28.5827 127.719 27.6411L127.719 27.5396L134.316 27.5396C135.157 27.5396 135.838 26.8582 135.838 26.0174C135.838 25.1765 135.157 24.4951 134.316 24.4951L127.719 24.4951L127.719 23.5817C127.718 22.64 127.344 21.7368 126.677 21.0714C126.012 20.4052 125.109 20.0305 124.167 20.0297L68.556 20.0297C64.6662 18.6829 60.5778 17.9971 56.461 17.9999L56.4612 18.0013ZM52.1987 61.1326L52.1987 48.9543C52.1965 47.4747 51.6079 46.0561 50.5612 45.01C49.5151 43.9633 48.0966 43.3747 46.617 43.3725L43.0808 43.3725C46.269 39.7161 50.8134 37.5226 55.6585 37.3014C60.5045 37.081 65.2294 38.8513 68.7366 42.2024C72.2443 45.553 74.2285 50.1924 74.2285 55.0433C74.2285 59.8942 72.2445 64.5338 68.7366 67.8842C65.2296 71.2355 60.5046 73.0057 55.6585 72.7852C50.8134 72.5641 46.2688 70.3705 43.0808 66.7141L46.617 66.7141C48.0965 66.7119 49.5151 66.1233 50.5612 65.0766C51.6079 64.0305 52.1966 62.6122 52.1987 61.1326ZM39.2491 66.7143C42.601 71.661 47.9183 74.9275 53.8457 75.6813C59.7732 76.4359 65.7392 74.6048 70.2234 70.6556C74.7069 66.7056 77.2768 61.0187 77.2768 55.0433C77.2768 49.068 74.7069 43.3811 70.2234 39.4311C65.7392 35.4819 59.7733 33.6508 53.8457 34.4054C47.9183 35.1593 42.601 38.4257 39.2491 43.3724L33.3629 43.3724C36.8888 36.3944 43.3796 31.3846 51.0229 29.7421C58.6669 28.0994 66.6431 30.0001 72.724 34.9135C78.8053 39.8262 82.3391 47.2253 82.3391 55.0428C82.3391 62.8603 78.8052 70.2599 72.7241 75.1721C66.6428 80.0856 58.6668 81.9862 51.0229 80.3435C43.3795 78.7009 36.8888 73.691 33.3629 66.7132L39.2491 66.7143ZM10.0823 63.6698C8.6818 63.6676 7.54736 62.5331 7.54513 61.1326L7.54513 48.9543C7.54731 47.5537 8.68178 46.4193 10.0823 46.4171L46.6183 46.4171C48.0188 46.4193 49.1533 47.5537 49.1555 48.9543L49.1555 61.1326C49.1533 62.5331 48.0188 63.6676 46.6183 63.6698L10.0823 63.6698ZM124.938 82.4444L124.938 86.5039C124.938 86.7844 124.711 87.0113 124.43 87.0113L75.1552 87.0113C77.5909 85.5811 79.8569 83.879 81.9084 81.9369L124.429 81.9369C124.564 81.9369 124.693 81.9906 124.788 82.0855C124.883 82.1805 124.937 82.3095 124.937 82.4444L124.938 82.4444ZM56.4631 89.041C42.2224 89.041 29.3747 79.9581 24.5256 66.7145L30.0058 66.7145C32.2726 71.8425 35.9791 76.2028 40.6756 79.2648C45.3724 82.3275 50.8568 83.9607 56.4632 83.9672C72.4125 83.9672 85.3869 70.9915 85.3869 55.0435C85.3869 39.0956 72.4126 26.1198 56.4632 26.1198C50.8561 26.1249 45.3709 27.7581 40.6734 30.8208C35.976 33.8835 32.2689 38.2438 30.0014 43.3725L24.5212 43.3725C29.37 30.1286 42.2181 21.046 56.4586 21.046C75.2054 21.046 90.4559 36.2973 90.4559 55.0433C90.4559 73.7894 75.2091 89.0407 56.4623 89.0407L56.4631 89.041ZM124.17 23.0747C124.305 23.0747 124.434 23.1284 124.529 23.2233C124.624 23.3183 124.677 23.4473 124.677 23.5822L124.677 27.6416C124.677 27.9221 124.45 28.149 124.17 28.149L81.9102 28.149C79.8587 26.207 77.5926 24.5049 75.1569 23.0747L124.17 23.0747Z" fill="#363636"/>
<path d="M28.5789 59.1029L28.5789 54.66L33.032 59.1029C33.3154 59.3964 33.7054 59.5639 34.1135 59.5668C34.5223 59.5704 34.9145 59.4095 35.203 59.121C35.4915 58.8317 35.6525 58.4388 35.6488 58.0307C35.6445 57.6226 35.477 57.2326 35.1835 56.9492L28.1346 49.9003L28.1339 49.9003C27.6989 49.4639 27.0436 49.3327 26.4746 49.5683C25.9048 49.8039 25.5336 50.3599 25.5344 50.976L25.5344 55.4269L21.5807 51.4747L21.58 51.4754C20.9783 50.9361 20.0606 50.9607 19.4893 51.532C18.9173 52.1024 18.8905 53.0202 19.4284 53.6226L25.9866 60.1786C26.4223 60.6136 27.0761 60.7433 27.6445 60.5077C28.2135 60.2729 28.5839 59.7183 28.5846 59.1029L28.5789 59.1029Z" fill="#009B3E"/>
</svg>
