<svg width="150" height="150" viewBox="0 0 150 150" fill="none" xmlns="http://www.w3.org/2000/svg">
<g clip-path="url(#clip0_2409_9596)">
<path d="M9.99099 78.1382H68.0022C69.4394 78.1656 70.7563 78.944 71.4667 80.1878C72.1778 81.4317 72.1778 82.9566 71.4667 84.2004C70.7562 85.4443 69.4394 86.2233 68.0022 86.25H9.99099H9.99164C6.42172 86.25 3.12353 84.3543 1.33865 81.2765C-0.44622 78.1988 -0.44622 74.4065 1.33865 71.3289C3.12353 68.2512 6.42172 66.3547 9.99164 66.3547H45.83C46.8482 66.3547 47.6738 65.5333 47.6738 64.5195C47.6738 63.5058 46.8482 62.6837 45.83 62.6837H9.99164C6.42172 62.6837 3.12353 60.788 1.33865 57.7102C-0.44622 54.6325 -0.44622 50.8403 1.33865 47.7626C3.12353 44.685 6.42172 42.7884 9.99164 42.7884H22.1537C23.0043 42.7884 23.6938 42.1019 23.6938 41.2551V40.0432C21.5611 39.9799 19.5365 39.092 18.0515 37.5665C16.5658 36.0417 15.7363 33.9999 15.7381 31.8758V14.7611C15.7381 14.0524 16.3156 13.4774 17.0274 13.4774H18.0822V4.42357C18.0822 3.13734 18.7711 1.94823 19.8901 1.3047C21.0098 0.661898 22.388 0.661898 23.5071 1.3047C24.6261 1.94815 25.3156 3.13717 25.3156 4.42357V13.4774H30.3405V4.42357C30.3215 3.45612 30.6935 2.52134 31.3738 1.83024C32.0541 1.13914 32.9852 0.75 33.9569 0.75C34.9286 0.75 35.8598 1.13919 36.54 1.83024C37.2202 2.52129 37.5929 3.45613 37.5732 4.42357V13.4774H38.6294C39.3412 13.4781 39.9174 14.0524 39.9187 14.7611V31.8758C39.9187 34.02 39.0714 36.0788 37.5595 37.6062C36.0483 39.1337 33.9936 40.0073 31.84 40.0385V41.2478C31.842 43.8053 30.8225 46.2584 29.0075 48.0675C27.1917 49.8766 24.7285 50.893 22.1596 50.893H9.99756C8.97937 50.893 8.15368 51.7151 8.15368 52.7288C8.15368 53.7425 8.97937 54.5646 9.99756 54.5646H45.8308C49.4008 54.5646 52.699 56.4603 54.4838 59.5381C56.2682 62.6158 56.2682 66.4081 54.4838 69.4857C52.699 72.5634 49.4008 74.4593 45.8308 74.4593H9.99253C8.97434 74.4593 8.14865 75.2813 8.14865 76.2951C8.14865 77.3088 8.97434 78.1309 9.99253 78.1309L9.99099 78.1382ZM18.3114 16.0428V20.3728L37.3403 20.3722V16.0429L18.3114 16.0428ZM22.7325 4.41583C22.7325 3.84474 22.2676 3.38188 21.694 3.38188C21.1204 3.38188 20.6556 3.84474 20.6556 4.41583V13.4697H22.7326L22.7325 4.41583ZM34.996 4.41583H34.9954C34.9954 3.84474 34.5305 3.38188 33.9569 3.38188C33.3833 3.38188 32.9184 3.84474 32.9184 4.41583V13.4697H34.9954L34.996 4.41583ZM37.3428 31.8695L37.3421 22.9381H18.3116V31.8754C18.3116 33.3604 18.9042 34.7843 19.959 35.8345C21.0132 36.8841 22.4439 37.4741 23.9349 37.4741H31.7086C33.2002 37.4741 34.631 36.8841 35.6852 35.8345C36.74 34.7843 37.3326 33.3605 37.3326 31.8754L37.3428 31.8695ZM9.99467 71.8818H45.8313C48.455 71.8446 50.8639 70.43 52.165 68.1613C53.4668 65.8926 53.4668 63.1083 52.165 60.8396C50.864 58.5708 48.455 57.1563 45.8313 57.1197H9.99299C8.43264 57.091 7.00256 56.2461 6.22997 54.8954C5.45798 53.5453 5.45798 51.8893 6.22997 50.5392C7.00262 49.1891 8.43274 48.3436 9.99299 48.3155H22.1551C24.0409 48.3168 25.8494 47.571 27.1832 46.2437C28.517 44.9158 29.2654 43.1152 29.2641 41.237V40.0309H26.2716V41.237C26.2729 42.3244 25.8395 43.3675 25.0668 44.1367C24.2948 44.9053 23.2472 45.3369 22.155 45.3363H9.99291C7.36924 45.3728 4.9603 46.7881 3.65852 49.0568C2.35746 51.3255 2.35746 54.1098 3.65852 56.3785C4.96024 58.6472 7.36924 60.0618 9.99291 60.0983H45.8312C47.0177 60.0768 48.1636 60.5312 49.0103 61.3591C49.8569 62.1871 50.3342 63.3188 50.3342 64.5007C50.3342 65.682 49.8569 66.8143 49.0103 67.6423C48.1636 68.4696 47.0177 68.924 45.8312 68.9025H9.99291C7.36924 68.9396 4.9603 70.3543 3.65852 72.623C2.35746 74.8917 2.35746 77.6759 3.65852 79.9447C4.96024 82.2134 7.36924 83.628 9.99291 83.6645H68.0041C68.8305 83.6645 69.5003 82.9976 69.5003 82.1755C69.5003 81.3528 68.8305 80.6859 68.0041 80.6859H9.99291H9.99357C8.43321 80.6572 7.00313 79.8123 6.23055 78.4622C5.45855 77.1114 5.45855 75.4562 6.23055 74.1055C7.0032 72.7554 8.43331 71.9099 9.99357 71.8818L9.99467 71.8818Z" fill="#393D38"/>
<path d="M68.5201 18.0996L76.675 17H129.986L136.559 18.0996L144.349 22.4981L148 31.1729V147H60V41.3139V32.2726L63.5297 22.4981L68.5201 18.0996Z" fill="white"/>
<path d="M148.678 149.795H59.5877C58.752 149.795 58.0732 149.117 58.0732 148.281V35.0896C58.0732 24.8593 66.3955 16.5332 76.6296 16.5332H131.637C141.871 16.5332 150.194 24.8593 150.194 35.0896V148.281C150.194 149.117 149.519 149.795 148.679 149.795H148.678ZM61.1015 146.767H147.166L147.167 35.0914C147.167 26.5295 140.202 19.5639 131.64 19.5639H76.6295C68.0676 19.5639 61.102 26.5295 61.102 35.0914C61.101 35.0914 61.101 146.767 61.101 146.767H61.1015Z" fill="#393D38"/>
<path d="M79.7705 138.415C75.7549 138.415 72.4893 135.15 72.4893 131.134C72.4893 127.118 75.7539 123.853 79.7705 123.853C83.7862 123.853 87.0518 127.117 87.0518 131.134C87.0509 135.15 83.7833 138.415 79.7705 138.415ZM79.7705 126.882C77.4262 126.882 75.5181 128.79 75.5181 131.135C75.5181 133.479 77.4261 135.387 79.7705 135.387C82.1149 135.387 84.023 133.479 84.023 131.135C84.0221 128.79 82.1141 126.882 79.7705 126.882Z" fill="#009B3E"/>
<path d="M104.133 138.415C100.117 138.415 96.8516 135.15 96.8516 131.134C96.8516 127.118 100.116 123.853 104.133 123.853C108.149 123.853 111.414 127.117 111.414 131.134C111.414 135.15 108.149 138.415 104.133 138.415ZM104.133 126.882C101.788 126.882 99.8804 128.79 99.8804 131.135C99.8804 133.479 101.788 135.387 104.133 135.387C106.477 135.387 108.385 133.479 108.385 131.135C108.385 128.79 106.477 126.882 104.133 126.882Z" fill="#009B3E"/>
<path d="M128.494 138.415C124.478 138.415 121.213 135.15 121.213 131.134C121.213 127.118 124.478 123.853 128.494 123.853C132.51 123.853 135.775 127.117 135.775 131.134C135.775 135.15 132.511 138.415 128.494 138.415ZM128.494 126.882C126.15 126.882 124.242 128.79 124.242 131.135C124.242 133.479 126.15 135.387 128.494 135.387C130.839 135.387 132.747 133.479 132.747 131.135C132.747 128.79 130.842 126.882 128.494 126.882Z" fill="#009B3E"/>
<path d="M134.262 97.2921H74.0047C73.169 97.2921 72.4902 96.6133 72.4902 95.7776C72.4902 94.942 73.169 94.2632 74.0047 94.2632H134.267C135.102 94.2632 135.781 94.942 135.781 95.7776C135.781 96.6133 135.1 97.2921 134.264 97.2921H134.262Z" fill="#393D38"/>
<path d="M134.262 84.3591H74.0047C73.169 84.3591 72.4902 83.6803 72.4902 82.8447C72.4902 82.009 73.169 81.3302 74.0047 81.3302H134.267C135.102 81.3302 135.781 82.009 135.781 82.8447C135.778 83.6813 135.1 84.3591 134.264 84.3591H134.262Z" fill="#393D38"/>
<path d="M134.262 110.225H74.0047C73.169 110.225 72.4902 109.546 72.4902 108.711C72.4902 107.875 73.169 107.196 74.0047 107.196H134.267C135.102 107.196 135.781 107.875 135.781 108.711C135.781 109.546 135.1 110.225 134.264 110.225H134.262Z" fill="#393D38"/>
<path d="M104.133 65.461C87.9961 65.461 74.8672 52.3321 74.8672 36.1952V18.0598C74.8672 17.2242 75.546 16.5454 76.3816 16.5454C77.2173 16.5454 77.8961 17.2242 77.8961 18.0598V36.1952C77.8961 50.6626 89.6655 62.431 104.132 62.431C118.598 62.431 130.368 50.6616 130.368 36.1952V18.0477C130.368 17.212 131.047 16.5332 131.882 16.5332C132.718 16.5332 133.397 17.212 133.397 18.0477V36.1952C133.397 52.3321 120.268 65.461 104.131 65.461H104.133Z" fill="#393D38"/>
<path d="M104.133 55.7625C97.5635 55.7625 92.2207 50.4196 92.2207 43.8505C92.2207 37.2823 97.5635 31.9395 104.133 31.9395C110.702 31.9395 116.045 37.2823 116.045 43.8514C116.045 50.4206 110.702 55.7625 104.133 55.7625ZM104.133 34.9683C99.2357 34.9683 95.2495 38.9535 95.2495 43.8514C95.2495 48.7484 99.2348 52.7346 104.133 52.7346C109.03 52.7346 113.016 48.7494 113.016 43.8514C113.016 38.9535 109.03 34.9683 104.133 34.9683Z" fill="#393D38"/>
<path d="M104.133 45.3655C103.297 45.3655 102.618 44.6867 102.618 43.8511V27.0363C102.618 26.2006 103.297 25.5219 104.133 25.5219C104.968 25.5219 105.647 26.2006 105.647 27.0363V43.8521C105.647 44.6877 104.968 45.3656 104.133 45.3656V45.3655Z" fill="#393D38"/>
<path d="M42.6606 96.3695H41.5553V91.4342C41.5553 90.9977 41.3818 90.5795 41.0733 90.271C40.7648 89.9621 40.3462 89.7891 39.9102 89.7891H28.7231C27.8147 89.7891 27.078 90.5253 27.078 91.4342V96.3695H25.9727C24.434 96.3713 22.9588 96.9832 21.8705 98.071C20.7826 99.1593 20.1702 100.635 20.1689 102.173V144.196C20.1703 145.735 20.7827 147.21 21.8705 148.299C22.9588 149.386 24.434 149.998 25.9727 150H42.6611C44.1998 149.998 45.6749 149.386 46.7633 148.299C47.8512 147.21 48.4635 145.735 48.4648 144.196V102.173C48.4634 100.635 47.8511 99.1594 46.7633 98.071C45.675 96.9831 44.1998 96.3713 42.6611 96.3695H42.6606ZM30.3681 93.0793H38.265V96.3695H30.3681V93.0793ZM45.1741 144.196C45.1727 144.862 44.9069 145.501 44.436 145.972C43.965 146.443 43.3265 146.708 42.6605 146.71H25.9721C25.3061 146.708 24.6675 146.443 24.1967 145.972C23.7257 145.501 23.46 144.862 23.4586 144.196V102.173C23.46 101.507 23.7257 100.869 24.1967 100.398C24.6676 99.9268 25.3061 99.6615 25.9721 99.6597H42.6605C43.3266 99.6615 43.9651 99.9268 44.436 100.398C44.9069 100.869 45.1727 101.507 45.1741 102.173V144.196Z" fill="#009B3E"/>
<path d="M37.2772 105.181H35.9613V103.99C35.9613 103.081 35.2245 102.345 34.3161 102.345C33.4078 102.345 32.671 103.081 32.671 103.99V105.181H31.3551C30.4462 105.181 29.71 105.918 29.71 106.826C29.71 107.735 30.4462 108.471 31.3551 108.471H32.671V109.656C32.671 110.565 33.4078 111.301 34.3161 111.301C35.2245 111.301 35.9613 110.565 35.9613 109.656V108.471H37.2772C38.1861 108.471 38.9223 107.735 38.9223 106.826C38.9223 105.918 38.1861 105.181 37.2772 105.181Z" fill="#009B3E"/>
<path d="M37.2772 140.418H31.3551C30.4462 140.418 29.71 141.155 29.71 142.063C29.71 142.972 30.4462 143.708 31.3551 143.708H37.2772C38.1861 143.708 38.9223 142.972 38.9223 142.063C38.9223 141.155 38.1861 140.418 37.2772 140.418Z" fill="#009B3E"/>
</g>
<defs>
<clipPath id="clip0_2409_9596">
<rect width="150" height="150" fill="white"/>
</clipPath>
</defs>
</svg>
