<svg width="86" height="86" viewBox="0 0 86 86" fill="none" xmlns="http://www.w3.org/2000/svg">
<path d="M42.9995 85.0519C34.6824 85.052 26.552 82.5858 19.6366 77.965C12.7211 73.3443 7.33115 66.7767 4.14831 59.0927C0.965473 51.4087 0.132707 42.9534 1.75532 34.7961C3.37794 26.6388 7.38306 19.1458 13.2642 13.2648C21.1505 5.37848 31.8466 0.947998 42.9995 0.947998C54.1525 0.947998 64.8486 5.37848 72.7349 13.2648C80.6212 21.1511 85.0517 31.8472 85.0517 43.0001C85.0517 54.153 80.6212 64.8492 72.7349 72.7355C68.8389 76.6523 64.2048 79.7577 59.1008 81.8718C53.9967 83.9859 48.5241 85.0668 42.9995 85.0519ZM42.9995 2.84132C20.8551 2.84132 2.84075 20.8556 2.84075 43.0001C2.84075 65.1446 20.8551 83.1589 42.9995 83.1589C65.144 83.1589 83.1584 65.1377 83.1584 43.0001C83.1584 20.8625 65.1423 2.84132 42.9995 2.84132Z" fill="#00732E"/>
<path d="M79.6101 27.5329C75.7742 18.4225 68.69 11.0624 59.7327 6.88159C50.7754 2.70073 40.5841 1.99736 31.1373 4.90804C21.6906 7.81872 13.6624 14.1358 8.61136 22.6328C3.56031 31.1299 1.84677 41.2006 3.80341 50.89C5.76004 60.5794 11.2473 69.1961 19.1998 75.0673C27.1523 80.9385 37.0027 83.6452 46.8386 82.662C56.6746 81.6788 65.7944 77.0758 72.4274 69.7467C79.0604 62.4176 82.7335 52.8853 82.7335 43.0003C82.7403 37.6872 81.6781 32.427 79.6101 27.5329Z" fill="url(#paint0_linear_2471_12382)"/>
<path d="M77.1707 28.5636C73.5904 20.0601 66.9782 13.1902 58.6176 9.28781C50.2571 5.38538 40.7447 4.72879 31.9272 7.44551C23.1098 10.1622 15.6163 16.0584 10.9017 23.9894C6.1871 31.9204 4.58766 41.3203 6.41391 50.3642C8.24016 59.4081 13.3618 67.4508 20.7845 72.9309C28.2073 78.411 37.4015 80.9374 46.5822 80.0197C55.763 79.1021 64.2752 74.8057 70.4663 67.9649C76.6575 61.124 80.0859 52.2267 80.0859 43.0002C80.0929 38.0411 79.1014 33.1314 77.1707 28.5636Z" fill="url(#paint1_linear_2471_12382)"/>
<path d="M42.9998 78.569C23.3816 78.569 7.43066 62.6129 7.43066 42.9998C7.43066 23.3868 23.3868 7.43066 42.9998 7.43066C62.6129 7.43066 78.569 23.3868 78.569 42.9998C78.569 62.6129 62.6129 78.569 42.9998 78.569ZM42.9998 7.77484C23.5761 7.77484 7.77484 23.5761 7.77484 42.9998C7.77484 62.4236 23.5761 78.2248 42.9998 78.2248C62.4236 78.2248 78.2248 62.4236 78.2248 42.9998C78.2248 23.5761 62.4236 7.77484 42.9998 7.77484Z" fill="#33691E"/>
<path d="M83.0383 33.8467H2.96166C1.32598 33.8467 0 35.1727 0 36.8083V53.3823C0 55.018 1.32598 56.3439 2.96166 56.3439H83.0383C84.674 56.3439 86 55.018 86 53.3823V36.8083C86 35.1727 84.674 33.8467 83.0383 33.8467Z" fill="#00732E"/>
<path d="M83.0383 31.7212H2.96166C1.32598 31.7212 0 33.0472 0 34.6829V51.2568C0 52.8925 1.32598 54.2184 2.96166 54.2184H83.0383C84.674 54.2184 86 52.8925 86 51.2568V34.6829C86 33.0472 84.674 31.7212 83.0383 31.7212Z" fill="#009B3E"/>
<path d="M15.0739 49.2796H12.5391V36.717H15.0739V49.2796Z" fill="white"/>
<path d="M22.5073 45.9839C22.5073 45.4734 22.3765 45.0868 22.115 44.8241C21.8534 44.5613 21.3778 44.2894 20.6883 44.0084C19.4263 43.5311 18.5206 42.9724 17.971 42.3322C17.4234 41.7029 17.1284 40.893 17.1433 40.0589C17.1433 39.0011 17.5184 38.1516 18.2688 37.5103C19.0191 36.8689 19.9719 36.5483 21.1272 36.5483C21.8454 36.5357 22.5553 36.7031 23.1922 37.0353C23.7822 37.3465 24.2666 37.8256 24.5844 38.412C24.9164 39.0317 25.0846 39.726 25.0732 40.4289H22.5435C22.5435 39.8438 22.4196 39.3964 22.1683 39.0883C22.0363 38.9324 21.8696 38.8096 21.6817 38.7295C21.4938 38.6494 21.2897 38.6144 21.0859 38.6271C20.8958 38.6162 20.7056 38.6455 20.5277 38.7131C20.3498 38.7807 20.1881 38.8851 20.0533 39.0195C19.7953 39.3091 19.6617 39.6887 19.6816 40.0761C19.6837 40.2521 19.7216 40.4258 19.7929 40.5868C19.8642 40.7477 19.9674 40.8925 20.0963 41.0123C20.3717 41.2911 20.8604 41.5779 21.5625 41.8727C22.7878 42.3167 23.6775 42.8605 24.2317 43.5041C24.7858 44.1477 25.0634 44.9669 25.0646 45.9616C25.0646 47.0538 24.7164 47.9073 24.02 48.5223C23.3236 49.1372 22.3777 49.4452 21.1822 49.4464C20.4143 49.456 19.6549 49.2845 18.9657 48.9456C18.3173 48.629 17.7741 48.1318 17.4014 47.5138C17.0123 46.8475 16.8162 46.0859 16.8352 45.3145H19.377C19.377 46.0396 19.5176 46.5656 19.7986 46.8926C20.0797 47.2195 20.5386 47.3836 21.1753 47.3847C22.0645 47.3882 22.5085 46.9213 22.5073 45.9839Z" fill="white"/>
<path d="M35.5827 44.1309C35.5827 45.8162 35.1846 47.1241 34.3884 48.0545C33.5922 48.9849 32.4868 49.4507 31.0722 49.4519C29.6634 49.4519 28.5563 48.9901 27.7509 48.0666C26.9455 47.143 26.5377 45.8512 26.5273 44.1911V42.0434C26.5273 40.3225 26.9289 38.9756 27.732 38.0028C28.5351 37.0299 29.645 36.5452 31.0619 36.5486C32.4593 36.5486 33.5601 37.0247 34.3643 37.9769C35.1685 38.9292 35.577 40.2646 35.5896 41.9832L35.5827 44.1309ZM33.0409 42.0262C33.0409 40.8927 32.8803 40.05 32.5591 39.4982C32.3998 39.2469 32.1802 39.0395 31.9202 38.8949C31.6602 38.7502 31.3682 38.6729 31.0707 38.67C30.7732 38.6671 30.4797 38.7387 30.217 38.8782C29.9543 39.0178 29.7306 39.2209 29.5664 39.469C29.2429 40.0007 29.0777 40.8095 29.0657 41.8954V44.1326C29.0657 45.2305 29.2297 46.0393 29.5578 46.5591C29.886 47.0788 30.3919 47.3392 31.0757 47.3403C31.7365 47.3403 32.2281 47.0856 32.5505 46.5763C32.8729 46.0669 33.0363 45.2776 33.0409 44.2083V42.0262Z" fill="white"/>
<path d="M46.0188 44.4234C45.5003 44.9523 44.9341 45.2168 44.3203 45.2168C43.8777 45.2306 43.4387 45.1324 43.0443 44.9311C42.6498 44.7298 42.3127 44.432 42.0642 44.0655C41.5158 43.298 41.2416 42.2729 41.2416 40.9902C41.2321 40.2085 41.3906 39.4339 41.7063 38.7187C41.9816 38.075 42.431 37.5208 43.0038 37.1182C43.5498 36.7412 44.1989 36.5422 44.8624 36.5486C45.5463 36.5396 46.2132 36.7615 46.7554 37.1785C47.3443 37.6488 47.7897 38.2748 48.0409 38.9854C48.3577 39.8419 48.5123 40.75 48.4969 41.6631V42.5511C48.4969 44.6896 48.0271 46.3617 47.0875 47.5675C46.1479 48.7733 44.8153 49.3871 43.0899 49.4089H42.8403V47.3042H43.0124C43.9669 47.3042 44.684 47.057 45.1635 46.5625C45.6431 46.068 45.9282 45.355 46.0188 44.4234ZM44.9415 43.3014C45.4131 43.3014 45.7836 42.9796 46.0532 42.336V41.2174C46.0532 40.3948 45.9414 39.7489 45.7177 39.2797C45.4922 38.8116 45.2014 38.5775 44.8452 38.5775C44.4889 38.5775 44.2119 38.8081 43.9968 39.2659C43.7672 39.8007 43.6568 40.3792 43.6732 40.961C43.6732 41.686 43.7851 42.2568 44.0088 42.6733C44.2274 43.0932 44.544 43.3014 44.9415 43.3014Z" fill="white"/>
<path d="M57.5163 44.0861C57.5163 45.8242 57.2014 47.1527 56.5715 48.0717C55.9417 48.9907 55.0434 49.4496 53.8766 49.4484C52.7202 49.4484 51.8276 49.001 51.1989 48.1061C50.5702 47.2113 50.2438 45.9309 50.2197 44.2651V41.8954C50.2197 40.1653 50.5329 38.842 51.1593 37.9253C51.7857 37.0086 52.6858 36.5497 53.8594 36.5486C55.0308 36.5486 55.9302 37.0029 56.5578 37.9115C57.1853 38.8202 57.5048 40.1166 57.5163 41.8008V44.0861ZM55.0692 41.5426C55.0692 40.5537 54.9717 39.812 54.7767 39.3175C54.5816 38.823 54.2776 38.5758 53.8646 38.5758C53.0879 38.5758 52.6863 39.4816 52.66 41.2931V44.4234C52.66 45.4353 52.7592 46.1885 52.9577 46.6829C53.1561 47.1774 53.4653 47.4246 53.8852 47.4246C54.281 47.4246 54.5753 47.1952 54.7681 46.7363C54.9608 46.2774 55.0612 45.5666 55.0692 44.6041V41.5426Z" fill="white"/>
<path d="M66.4509 44.0861C66.4509 45.8242 66.136 47.1527 65.5061 48.0717C64.8763 48.9907 63.978 49.4496 62.8112 49.4484C61.6548 49.4484 60.7622 49.001 60.1335 48.1061C59.5048 47.2113 59.1784 45.9309 59.1543 44.2651V41.8954C59.1543 40.1653 59.4675 38.842 60.0939 37.9253C60.7203 37.0086 61.6203 36.5497 62.794 36.5486C63.9665 36.5486 64.8665 37.0029 65.4941 37.9115C66.1216 38.8202 66.4406 40.1166 66.4509 41.8008V44.0861ZM64.0021 41.5426C64.0021 40.5537 63.904 39.812 63.7078 39.3175C63.5116 38.823 63.207 38.5758 62.794 38.5758C62.0184 38.5758 61.6169 39.4816 61.5894 41.2931V44.4234C61.5894 45.4353 61.6886 46.1885 61.8871 46.6829C62.0856 47.1774 62.3947 47.4246 62.8146 47.4246C63.2104 47.4246 63.503 47.194 63.6992 46.7363C63.8954 46.2785 63.9935 45.5644 64.0055 44.6093L64.0021 41.5426Z" fill="white"/>
<path d="M73.4615 49.2797H71.0126V39.6874L68.624 40.6115V38.5757L73.2033 36.7034H73.4615V49.2797Z" fill="white"/>
<path fill-rule="evenodd" clip-rule="evenodd" d="M50.5187 67.7087L45.3198 73.3756L42.8504 75.778L40.448 73.3085L37.7324 70.5155L42.8504 71.7442L50.5187 67.7087Z" fill="#6B6E7A"/>
<path d="M28.7935 64.3566C28.7506 64.4615 28.6875 64.5568 28.6077 64.6371C28.5328 64.7131 28.4469 64.7775 28.353 64.8282C28.2627 64.8776 28.166 64.9141 28.0656 64.9366C27.9696 64.9586 27.8715 64.9701 27.773 64.971C27.6023 64.9728 27.4336 64.9339 27.2809 64.8574C27.1338 64.7834 27.0028 64.6811 26.8954 64.5563C26.7868 64.4275 26.7029 64.2799 26.6476 64.1209C26.5888 63.9551 26.5591 63.7805 26.5598 63.6046C26.5607 63.4422 26.5862 63.2809 26.6355 63.1262C26.6837 62.9697 26.7601 62.8233 26.861 62.6942C26.962 62.5656 27.0893 62.46 27.2344 62.3845C27.3975 62.3022 27.5784 62.2615 27.761 62.2657C27.8576 62.266 27.9539 62.2763 28.0484 62.2967C28.1451 62.3175 28.2388 62.3504 28.3272 62.3948C28.42 62.4435 28.5047 62.5062 28.5784 62.5807C28.6601 62.664 28.727 62.7606 28.7763 62.8663L29.3941 62.4516C29.2524 62.1846 29.0367 61.9642 28.7729 61.8166C28.4717 61.6474 28.1304 61.563 27.7851 61.5722C27.5036 61.5661 27.2241 61.6197 26.9648 61.7294C26.7056 61.8392 26.4725 62.0026 26.281 62.209C26.1072 62.3954 25.9716 62.614 25.8818 62.8526C25.6948 63.3318 25.6985 63.8645 25.8921 64.3411C25.9894 64.5856 26.1299 64.8106 26.3068 65.0054C26.4863 65.202 26.7012 65.3631 26.9401 65.4804C27.1926 65.6027 27.4701 65.6645 27.7507 65.6611C27.9246 65.6606 28.0978 65.6398 28.2669 65.5991C28.4379 65.5588 28.6032 65.4976 28.7591 65.4167C28.9103 65.339 29.0499 65.2406 29.1738 65.1242C29.2942 65.0118 29.3903 64.8759 29.4561 64.7249L28.7935 64.3566Z" fill="#6B6E7A"/>
<path d="M31.5017 64.9416V63.8902H33.2449V63.2551H31.5017V62.2828H33.5186V61.5945H30.6963V65.6265H33.5719V64.9382L31.5017 64.9416Z" fill="#6B6E7A"/>
<path d="M37.3018 64.1053C37.5287 64.0138 37.7201 63.8515 37.8473 63.6424C37.9815 63.4292 38.0514 63.1819 38.0487 62.93C38.0483 62.7632 38.0143 62.5981 37.9488 62.4447C37.8846 62.2853 37.7919 62.1389 37.6752 62.0127C37.5575 61.8847 37.416 61.7807 37.2588 61.7064C37.0938 61.6279 36.9131 61.5878 36.7304 61.5894H34.8994V65.6215H35.7048V64.2774H36.4981L37.3431 65.6283H38.2466L37.3018 64.1053ZM37.1968 63.1864C37.1722 63.261 37.1349 63.3309 37.0867 63.3929C37.0401 63.4513 36.9814 63.4988 36.9146 63.5323C36.8512 63.5667 36.7802 63.5844 36.7081 63.5839H35.6996V62.276H36.6737C36.7454 62.277 36.8159 62.294 36.8802 62.3259C36.9463 62.3589 37.0049 62.4051 37.0523 62.4619C37.1065 62.5224 37.1491 62.5924 37.1779 62.6684C37.2096 62.7519 37.2254 62.8406 37.2243 62.93C37.2301 63.0187 37.2208 63.1077 37.1968 63.1933V63.1864Z" fill="#6B6E7A"/>
<path d="M39.0645 61.5962V62.2846H40.3878V65.63H41.1863V62.2828H42.5062V61.5945L39.0645 61.5962Z" fill="#6B6E7A"/>
<path d="M43.7227 61.5964V65.6285H44.528V61.5964H43.7227Z" fill="#6B6E7A"/>
<path d="M48.8735 62.2828V61.5945H46.0908V65.6265H46.8962V63.9573H48.5397V63.3205H46.8962V62.288L48.8735 62.2828Z" fill="#6B6E7A"/>
<path d="M50.1377 61.5964V65.6285H50.9379V61.5964H50.1377Z" fill="#6B6E7A"/>
<path d="M53.3103 64.9416V63.8902H55.0535V63.2551H53.3103V62.2828H55.3289V61.5945H52.5049V65.6265H55.3805V64.9382L53.3103 64.9416Z" fill="#6B6E7A"/>
<path d="M60.1269 62.8264C60.0457 62.5883 59.9149 62.3701 59.7432 62.1862C59.5632 61.9992 59.3456 61.8526 59.1047 61.756C58.8217 61.644 58.5193 61.5896 58.215 61.596H56.7109V65.628H58.215C58.5026 65.6321 58.7884 65.5831 59.0582 65.4835C59.2985 65.3932 59.5176 65.2543 59.7019 65.0756C59.8832 64.8954 60.0235 64.6782 60.1131 64.4389C60.2987 63.9182 60.3036 63.3502 60.1269 62.8264ZM59.3646 64.1343C59.314 64.2897 59.2333 64.4335 59.1271 64.5576C59.0219 64.6792 58.8907 64.7756 58.7433 64.8398C58.5761 64.9097 58.3962 64.9443 58.215 64.9414H57.5146V62.2826H58.215C58.3919 62.2803 58.5675 62.3136 58.7313 62.3807C58.8797 62.4409 59.0126 62.5339 59.1202 62.6526C59.2318 62.7739 59.3173 62.9168 59.3714 63.0725C59.4265 63.2449 59.4538 63.425 59.4523 63.606C59.4537 63.7853 59.4264 63.9636 59.3714 64.1343H59.3646Z" fill="#6B6E7A"/>
<path fill-rule="evenodd" clip-rule="evenodd" d="M42.8504 71.7441V75.7779L40.448 73.3084L37.7324 70.5154L42.8504 71.7441Z" fill="#3C3E49"/>
<path fill-rule="evenodd" clip-rule="evenodd" d="M59.3643 22.5607C59.3643 22.5577 59.3628 22.5454 59.3632 22.5483C59.3469 22.406 59.3123 22.2663 59.2603 22.1327C59.1877 21.9438 59.0762 21.7722 58.9329 21.629C58.7945 21.4932 58.6283 21.3889 58.4457 21.3231C58.2556 21.2542 58.0548 21.2196 57.8526 21.2209C57.6541 21.22 57.4569 21.2546 57.2706 21.3231C57.0883 21.3895 56.9222 21.4938 56.7833 21.629C56.6385 21.7722 56.5247 21.9437 56.4493 22.1327C56.3942 22.2699 56.3578 22.4139 56.341 22.5607C56.3304 22.6494 56.3252 22.7387 56.3255 22.8281C56.3207 23.0652 56.3613 23.301 56.4449 23.5231C56.5172 23.7115 56.6288 23.8826 56.7723 24.0248C56.9112 24.1597 57.0773 24.2634 57.2596 24.3291C57.4496 24.398 57.6504 24.4326 57.8526 24.4313C58.0584 24.4329 58.2629 24.3983 58.4567 24.3291C58.6387 24.2644 58.8041 24.1606 58.9412 24.0248C59.0824 23.8819 59.1917 23.7109 59.2621 23.5231C59.3443 23.3007 59.3841 23.065 59.3794 22.8281C59.3796 22.7387 59.3745 22.6495 59.3643 22.5607ZM58.6121 23.2367C58.5792 23.3501 58.5251 23.4563 58.4527 23.5497C58.3843 23.6363 58.2964 23.7055 58.1961 23.7517C58.0875 23.7987 57.9703 23.823 57.8519 23.823C57.7335 23.823 57.6164 23.7987 57.5077 23.7517C57.4083 23.7051 57.3211 23.6359 57.2533 23.5497C57.1809 23.4563 57.1269 23.3501 57.0941 23.2367C57.0556 23.1039 57.0369 22.9662 57.0387 22.8281C57.0384 22.7388 57.0459 22.6496 57.0611 22.5616C57.0695 22.5143 57.0806 22.4676 57.0941 22.4215C57.1265 22.3073 57.1806 22.2003 57.2533 22.1063C57.3214 22.0198 57.4084 21.9499 57.5077 21.9021C57.6156 21.8514 57.7338 21.8263 57.853 21.8287C57.9712 21.8272 58.0883 21.8518 58.1959 21.9006C58.2962 21.9468 58.3842 22.0161 58.4525 22.1027C58.5252 22.1968 58.5793 22.3038 58.6119 22.418C58.6259 22.4658 58.6372 22.5144 58.6456 22.5634C58.6603 22.6512 58.6675 22.74 58.6671 22.829C58.6688 22.9668 58.6503 23.1042 58.6121 23.2367ZM55.7508 21.2913V22.5607V24.369H55.0605V21.2913H55.7508ZM54.5294 23.5252C54.5359 23.6524 54.5121 23.7794 54.4597 23.8956C54.4074 24.0118 54.3281 24.114 54.2283 24.1936C53.9608 24.3711 53.6416 24.4548 53.3211 24.4313C53.1982 24.4321 53.0754 24.424 52.9537 24.407C52.8559 24.393 52.7591 24.3729 52.6638 24.3469C52.59 24.3267 52.5176 24.3015 52.4473 24.2715C52.3951 24.249 52.3441 24.2238 52.2946 24.1959L52.4889 23.6454C52.7446 23.7816 53.0314 23.8489 53.3211 23.8408C53.4022 23.8425 53.4831 23.8344 53.5622 23.8165C53.6169 23.804 53.6688 23.7814 53.7151 23.7498C53.7508 23.7248 53.7784 23.69 53.7947 23.6497C53.8099 23.6086 53.8175 23.565 53.8169 23.5211C53.8165 23.4707 53.8033 23.4213 53.7785 23.3774C53.7537 23.3335 53.7182 23.2966 53.6752 23.2701C53.523 23.177 53.3592 23.1044 53.1879 23.0542C53.0878 23.0182 52.9875 22.9775 52.8871 22.9321C52.7888 22.8878 52.6976 22.8294 52.6164 22.7588C52.5517 22.7016 52.4962 22.6349 52.452 22.5609L52.4509 22.5587L52.4498 22.5569C52.44 22.5404 52.4307 22.5237 52.4218 22.5062C52.3686 22.3931 52.3429 22.2691 52.3465 22.1442C52.3444 22.0118 52.3717 21.8806 52.4263 21.7599C52.4784 21.6472 52.5555 21.5477 52.6519 21.4692C52.7567 21.3852 52.877 21.3226 53.006 21.2848C53.1583 21.2399 53.3165 21.2182 53.4752 21.2204C53.7908 21.2138 54.1029 21.2871 54.3823 21.4334L54.1838 21.9798C54.092 21.9329 53.9965 21.8935 53.8983 21.8621C53.7754 21.8255 53.6475 21.8082 53.5193 21.811C53.3965 21.8019 53.2735 21.8257 53.163 21.8799C53.1276 21.9022 53.0989 21.9335 53.0799 21.9707C53.0608 22.0078 53.0521 22.0493 53.0547 22.091C53.053 22.1413 53.0669 22.1908 53.0946 22.2329C53.1249 22.2749 53.1632 22.3104 53.2074 22.3374C53.2606 22.3707 53.3169 22.3989 53.3754 22.4216C53.439 22.4468 53.509 22.4727 53.5857 22.4994C53.6339 22.5174 53.6797 22.5353 53.7239 22.5533L53.7357 22.5582L53.7438 22.5614C53.8383 22.5998 53.9242 22.6377 54.0013 22.6753C54.1097 22.7264 54.2091 22.7946 54.2957 22.8774C54.3734 22.9537 54.4331 23.0462 54.4706 23.1483C54.5121 23.2696 54.532 23.3971 54.5294 23.5252ZM51.7766 21.2913V24.369H51.0861V21.2913H51.7766ZM50.4532 21.9569C50.3895 22.1368 50.1792 22.6921 50.1612 22.7387C50.0548 23.011 49.9427 23.2864 49.8248 23.5648C49.7069 23.8432 49.5874 24.1111 49.4664 24.3685H48.8026C48.6814 24.1111 48.5619 23.8432 48.444 23.5648C48.326 23.2863 47.8804 22.1421 47.8134 21.9569C47.7233 21.7082 47.6458 21.4863 47.581 21.2913H48.3422C48.4013 21.469 48.4655 21.6609 48.5348 21.867C48.6041 22.0728 48.8984 22.9062 48.9573 23.0684C49.0254 23.2548 49.0888 23.4161 49.1477 23.5524C49.2037 23.4163 49.2665 23.2549 49.3359 23.0684C49.3962 22.9065 49.4857 22.6579 49.5483 22.4819C49.6205 22.278 49.6913 22.073 49.7607 21.867C49.8301 21.6609 49.8943 21.469 49.9531 21.2913H50.6878C50.62 21.4866 50.5418 21.7087 50.4532 21.9575V21.9569ZM37.6233 21.2913V22.5607V24.369H37.0436C36.8461 24.0167 36.6321 23.6689 36.4019 23.3255C36.2315 23.0711 35.9676 22.7235 35.7733 22.4799C35.7372 22.4371 35.7031 22.3941 35.6672 22.3518V24.3683H34.9857V21.2913H35.5477C35.6451 21.389 35.7528 21.5089 35.8707 21.6511C35.9886 21.7932 36.1089 21.945 36.2317 22.1064C36.3306 22.2367 36.4289 22.3716 36.5269 22.5098L36.5565 22.5517L36.5585 22.5546L36.563 22.5609C36.5742 22.5765 36.5854 22.5924 36.5964 22.6084C36.7173 22.7817 36.8309 22.9482 36.9371 23.108V21.2909L37.6233 21.2913ZM34.4766 23.7872V24.369H32.3035V22.5607V21.2913H34.3748V21.8731H32.994V22.4771H34.2197V22.5607V23.0465H32.994V23.7879L34.4766 23.7872ZM31.7947 23.7872V24.369H29.6216V21.2913H31.6928V21.8731H30.312V22.4771H31.5379V22.5607V23.0465H30.312V23.7879L31.7947 23.7872ZM29.0064 24.0248C28.9444 23.9081 28.8802 23.7956 28.8138 23.6873C28.7474 23.579 28.6803 23.4754 28.6126 23.3764C28.5445 23.2772 28.4796 23.1892 28.4179 23.1121C28.587 23.0478 28.7348 22.9379 28.8449 22.7946C28.8973 22.7248 28.9352 22.6453 28.9564 22.5607V22.5596V22.5582V22.5553C28.9812 22.4617 28.9933 22.3652 28.9925 22.2684C29.0031 22.1198 28.9749 21.9711 28.9104 21.8368C28.846 21.7025 28.7477 21.5871 28.6251 21.5021C28.3042 21.3186 27.9365 21.2329 27.5673 21.2556C27.4404 21.2556 27.2965 21.2616 27.1358 21.2736C26.9791 21.285 26.8231 21.3057 26.6689 21.3357V24.3692H27.3594V23.2456H27.7001C27.759 23.3168 27.818 23.3959 27.8772 23.4831C27.9364 23.5703 27.9961 23.6629 28.0564 23.7609C28.1165 23.8587 28.1756 23.9593 28.2334 24.0628C28.291 24.1666 28.3479 24.2684 28.4038 24.3687H29.1782C29.1256 24.2564 29.0682 24.1418 29.0064 24.0248ZM27.5548 22.6948H27.3601V21.8598C27.3962 21.8567 27.4323 21.8538 27.4729 21.8508C27.5135 21.8477 27.5577 21.8465 27.6079 21.8465C27.7807 21.8364 27.9532 21.8691 28.1102 21.9418C28.1664 21.9738 28.2122 22.0211 28.2424 22.0781C28.2726 22.1351 28.2858 22.1996 28.2805 22.2639C28.2844 22.3187 28.276 22.3737 28.256 22.4249C28.2359 22.4761 28.2046 22.5222 28.1645 22.5598C28.1483 22.5737 28.1309 22.5862 28.1125 22.5971C27.9375 22.6746 27.746 22.7082 27.5548 22.6948ZM62.593 21.2914V24.3692H62.0131C61.8155 24.0169 61.6016 23.6691 61.3713 23.3257C61.1992 23.0684 60.9284 22.7126 60.7332 22.4691C60.701 22.4305 60.6693 22.3911 60.6368 22.3527V24.3692H59.9551V21.2913H60.5173C60.6148 21.389 60.7225 21.5089 60.8405 21.6511C60.9586 21.7932 61.0789 21.945 61.2015 22.1064C61.3129 22.2529 61.4236 22.4044 61.5334 22.5609H61.528L61.5653 22.6084C61.6865 22.7817 61.8001 22.9482 61.9063 23.108V21.2909L62.593 21.2914ZM26.0289 22.7439V24.2672C25.8991 24.3124 25.766 24.3473 25.6306 24.3715C25.4072 24.4121 25.1804 24.4307 24.9533 24.4271C24.7398 24.43 24.5277 24.3938 24.3273 24.3204C24.1461 24.2534 23.9821 24.1473 23.847 24.0095C23.7099 23.8661 23.6053 23.695 23.5402 23.5078C23.4646 23.2893 23.428 23.0593 23.4319 22.8282C23.432 22.7389 23.4372 22.6496 23.4476 22.5609L23.4485 22.553C23.4652 22.4129 23.4997 22.2755 23.5514 22.1442C23.6247 21.9557 23.7361 21.7842 23.8788 21.6405C24.0176 21.5026 24.1844 21.3958 24.3679 21.3272C24.5595 21.2554 24.7628 21.2193 24.9676 21.2207C25.0987 21.2197 25.2297 21.2293 25.3592 21.2495C25.4609 21.2654 25.5614 21.2877 25.6602 21.3163C25.7315 21.3366 25.801 21.3626 25.8681 21.394C25.9223 21.4206 25.9618 21.4413 25.9854 21.4561L25.7869 22.0113C25.6832 21.9571 25.5744 21.9133 25.4621 21.8803C25.3321 21.8422 25.1971 21.8234 25.0616 21.8247C24.9325 21.8127 24.8023 21.8307 24.6814 21.8774C24.5605 21.924 24.452 21.998 24.3646 22.0935C24.2607 22.2292 24.1939 22.3894 24.1706 22.5586C24.1568 22.6479 24.1499 22.7381 24.1498 22.8284C24.1486 22.9672 24.1668 23.1056 24.204 23.2393C24.2356 23.3545 24.2897 23.4623 24.3634 23.5565C24.4341 23.6455 24.5251 23.7164 24.6288 23.7633C24.7459 23.8143 24.8727 23.8394 25.0004 23.8366C25.0773 23.8366 25.143 23.835 25.1975 23.8322C25.246 23.8299 25.2943 23.8239 25.3419 23.8142V22.7439H26.0289Z" fill="#3C3E49"/>
<path d="M40.6265 21.9381C40.7259 22.9712 41.9813 23.6579 43.2289 23.8437C43.0751 23.0554 42.9974 22.2541 42.9968 21.4509C42.6337 21.3507 42.0089 21.2097 41.8736 21.1821C41.7233 21.1519 41.5704 21.1367 41.4172 21.1368C41.1416 21.1395 40.5677 21.3262 40.6265 21.9381ZM45.7857 22.5847C45.1707 22.2417 44.527 21.9528 43.8617 21.7211C43.8296 22.4571 43.6738 23.1825 43.4008 23.8671C44.6509 24.006 45.8395 23.6329 45.7857 22.5838V22.5847ZM46.7114 22.826C46.7114 23.6088 46.4785 24.3741 46.0422 25.025C45.606 25.6759 44.9858 26.1832 44.2603 26.4828C43.5348 26.7823 42.7365 26.8607 41.9663 26.708C41.1962 26.5553 40.4887 26.1783 39.9334 25.6247C39.3781 25.0712 39 24.3659 38.8468 23.5982C38.6936 22.8304 38.7722 22.0345 39.0727 21.3113C39.3732 20.5881 39.8822 19.9699 40.5351 19.535C41.188 19.1001 41.9557 18.8679 42.7409 18.8679C43.7939 18.868 44.8038 19.285 45.5483 20.0273C46.2929 20.7696 46.7112 21.7763 46.7112 22.826H46.7114ZM39.6325 21.0405C39.7876 20.9784 39.9526 20.9444 40.1197 20.94C40.4075 20.9596 40.6987 20.9899 40.9932 21.0308C40.8641 21.0233 40.736 21.0182 40.6088 21.0155C40.2684 21.0353 39.5718 21.3097 39.6844 22.0869C40.0663 24.721 46.1093 25.2893 46.1066 22.7569C46.1813 22.7995 46.2553 22.8426 46.3286 22.8864C46.3286 22.8663 46.3286 22.8461 46.3286 22.826C46.3283 22.0386 46.0674 21.2733 45.5864 20.6489C45.1053 20.0244 44.431 19.5756 43.668 19.3721C42.905 19.1687 42.096 19.2219 41.3664 19.5236C40.6369 19.8252 40.0275 20.3584 39.633 21.0405H39.6325ZM45.9373 24.45C44.3203 25.6555 40.1399 24.8554 39.1526 22.8308C39.1535 23.6339 39.4256 24.4132 39.9249 25.0434C40.4241 25.6736 41.1217 26.118 41.9051 26.3049C42.6885 26.4919 43.5122 26.4106 44.2437 26.0741C44.9751 25.7376 45.5717 25.1656 45.9373 24.45Z" fill="#009B44"/>
<defs>
<linearGradient id="paint0_linear_2471_12382" x1="14.266" y1="71.7341" x2="71.4582" y2="14.5419" gradientUnits="userSpaceOnUse">
<stop stop-color="#EAEAEA"/>
<stop offset="1" stop-color="white"/>
</linearGradient>
<linearGradient id="paint1_linear_2471_12382" x1="16.6176" y1="69.3832" x2="69.1634" y2="16.8374" gradientUnits="userSpaceOnUse">
<stop stop-color="white"/>
<stop offset="1" stop-color="#EAEAEA"/>
</linearGradient>
</defs>
</svg>
