<svg width="155" height="151" viewBox="0 0 155 151" fill="none" xmlns="http://www.w3.org/2000/svg">
<path d="M77.2016 151C62.2691 151 47.6719 146.572 35.2559 138.276C22.8399 129.98 13.1628 118.189 7.44832 104.393C1.73386 90.5969 0.238717 75.4163 3.15196 60.7707C6.06519 46.1251 13.256 32.6723 23.8149 22.1135C37.974 7.95446 57.1777 -1.4919e-07 77.2016 0C97.2255 1.4919e-07 116.429 7.95446 130.588 22.1135C144.747 36.2725 152.702 55.4763 152.702 75.5002C152.702 95.5241 144.747 114.728 130.588 128.887C123.593 135.919 115.273 141.494 106.11 145.29C96.9459 149.086 87.1203 151.026 77.2016 151ZM77.2016 3.39926C37.4436 3.39926 5.10072 35.7421 5.10072 75.5002C5.10072 115.258 37.4436 147.601 77.2016 147.601C116.96 147.601 149.303 115.246 149.303 75.5002C149.303 35.7544 116.957 3.39926 77.2016 3.39926Z" fill="#00732E"/>
<path d="M142.932 47.7303C136.045 31.3736 123.326 18.1594 107.244 10.6531C91.1624 3.14678 72.865 1.88397 55.9044 7.10979C38.9438 12.3356 24.53 23.6772 15.4614 38.9328C6.39276 54.1883 3.31628 72.2693 6.82922 89.6656C10.3422 107.062 20.1939 122.532 34.4718 133.073C48.7497 143.614 66.435 148.474 84.0945 146.709C101.754 144.944 118.127 136.679 130.036 123.521C141.945 110.362 148.54 93.2479 148.54 75.5004C148.552 65.9613 146.645 56.5172 142.932 47.7303Z" fill="url(#paint0_linear_2421_9427)"/>
<path d="M138.551 49.5809C132.123 34.3137 120.252 21.9797 105.241 14.9733C90.2308 7.96687 73.1524 6.78803 57.3216 11.6656C41.4907 16.5432 28.0371 27.1292 19.5725 41.3684C11.1079 55.6076 8.23624 72.4842 11.5151 88.7216C14.7939 104.959 23.9893 119.399 37.316 129.238C50.6428 139.077 67.15 143.613 83.6331 141.965C100.116 140.317 115.399 132.604 126.515 120.322C137.63 108.04 143.785 92.0654 143.785 75.5003C143.798 66.5968 142.018 57.7819 138.551 49.5809Z" fill="url(#paint1_linear_2421_9427)"/>
<path d="M77.2015 139.361C41.9791 139.361 13.3408 110.713 13.3408 75.4999C13.3408 40.2867 41.9884 11.6392 77.2015 11.6392C112.415 11.6392 141.062 40.2867 141.062 75.4999C141.062 110.713 112.415 139.361 77.2015 139.361ZM77.2015 12.2571C42.3283 12.2571 13.9588 40.6266 13.9588 75.4999C13.9588 110.373 42.3283 138.743 77.2015 138.743C112.075 138.743 140.444 110.373 140.444 75.4999C140.444 40.6266 112.075 12.2571 77.2015 12.2571Z" fill="#33691E"/>
<path d="M149.087 59.0659H5.31735C2.38066 59.0659 0 61.4466 0 64.3833V94.14C0 97.0767 2.38066 99.4574 5.31735 99.4574H149.087C152.023 99.4574 154.404 97.0767 154.404 94.14V64.3833C154.404 61.4466 152.023 59.0659 149.087 59.0659Z" fill="#00732E"/>
<path d="M149.087 55.25H5.31735C2.38066 55.25 0 57.6307 0 60.5673V90.3241C0 93.2608 2.38066 95.6415 5.31735 95.6415H149.087C152.023 95.6415 154.404 93.2608 154.404 90.3241V60.5673C154.404 57.6307 152.023 55.25 149.087 55.25Z" fill="#009B3E"/>
<path d="M27.0628 86.7744H22.5117V64.2197H27.0628V86.7744Z" fill="white"/>
<path d="M40.4095 80.8575C40.4095 79.9409 40.1747 79.2467 39.7051 78.775C39.2354 78.3033 38.3816 77.8152 37.1437 77.3105C34.8779 76.4536 33.2517 75.4505 32.2651 74.3012C31.2818 73.1714 30.7523 71.7172 30.779 70.2197C30.779 68.3206 31.4525 66.7953 32.7996 65.6439C34.1467 64.4924 35.8574 63.9167 37.9316 63.9167C39.2211 63.8941 40.4957 64.1947 41.6392 64.7911C42.6983 65.3499 43.5681 66.21 44.1388 67.2628C44.7347 68.3755 45.0367 69.6219 45.0162 70.884H40.4744C40.4744 69.8335 40.2519 69.0302 39.8008 68.4771C39.5638 68.1972 39.2646 67.9766 38.9272 67.8329C38.5898 67.6891 38.2235 67.6262 37.8574 67.6491C37.5163 67.6294 37.1748 67.682 36.8553 67.8034C36.5359 67.9248 36.2457 68.1123 36.0036 68.3535C35.5403 68.8735 35.3006 69.5551 35.3362 70.2506C35.34 70.5666 35.408 70.8785 35.536 71.1674C35.664 71.4563 35.8494 71.7162 36.0809 71.9314C36.5752 72.4319 37.4527 72.9468 38.7133 73.4762C40.9131 74.2733 42.5105 75.2497 43.5054 76.4052C44.5003 77.5608 44.9987 79.0315 45.0008 80.8173C45.0008 82.7782 44.3756 84.3107 43.1253 85.4148C41.875 86.5188 40.1768 87.0719 38.0304 87.0739C36.6517 87.0913 35.2883 86.7832 34.0509 86.1748C32.8867 85.6063 31.9115 84.7137 31.2424 83.6042C30.5437 82.4078 30.1917 81.0406 30.2259 79.6556H34.7894C34.7894 80.9574 35.0417 81.9018 35.5463 82.4888C36.051 83.0759 36.8749 83.3704 38.0181 83.3725C39.6144 83.3786 40.4116 82.5403 40.4095 80.8575Z" fill="white"/>
<path d="M63.8859 77.5302C63.8859 80.556 63.1711 82.9042 61.7416 84.5747C60.3121 86.2452 58.3275 87.0814 55.7878 87.0835C53.2584 87.0835 51.2707 86.2544 49.8247 84.5963C48.3787 82.9382 47.6465 80.6188 47.6279 77.6383V73.7824C47.6279 70.6927 48.3489 68.2745 49.7907 66.5278C51.2326 64.7811 53.2254 63.9108 55.7693 63.917C58.2781 63.917 60.2544 64.7718 61.6984 66.4815C63.1423 68.1911 63.8756 70.5887 63.8982 73.6743L63.8859 77.5302ZM59.3224 73.7515C59.3224 71.7164 59.034 70.2035 58.4573 69.2127C58.1713 68.7616 57.777 68.3892 57.3102 68.1295C56.8435 67.8698 56.3192 67.731 55.7851 67.7257C55.251 67.7205 54.724 67.849 54.2523 68.0996C53.7806 68.3502 53.3791 68.7148 53.0843 69.1602C52.5035 70.1149 52.2068 71.5671 52.1852 73.5167V77.5333C52.1852 79.5045 52.4798 80.9566 53.0689 81.8897C53.658 82.8228 54.5663 83.2904 55.794 83.2924C56.9804 83.2924 57.863 82.8352 58.4418 81.9206C59.0206 81.0061 59.3142 79.5889 59.3224 77.6692V73.7515Z" fill="white"/>
<path d="M82.6216 78.0554C81.6906 79.0049 80.6741 79.4797 79.5721 79.4797C78.7774 79.5047 77.9894 79.3282 77.2812 78.9668C76.573 78.6055 75.9677 78.0708 75.5215 77.4127C74.537 76.0347 74.0447 74.1943 74.0447 71.8915C74.0276 70.488 74.3121 69.0971 74.8789 67.8131C75.3733 66.6574 76.18 65.6624 77.2085 64.9397C78.1887 64.2628 79.3542 63.9056 80.5454 63.917C81.7732 63.9007 82.9707 64.2992 83.944 65.0478C85.0015 65.8922 85.801 67.0161 86.252 68.292C86.8208 69.8298 87.0985 71.4601 87.0708 73.0995V74.6938C87.0708 78.5333 86.2273 81.5354 84.5403 83.7002C82.8534 85.8651 80.4609 86.9671 77.363 87.0062H76.915V83.2275H77.224C78.9377 83.2275 80.2251 82.7836 81.0861 81.8959C81.9471 81.0081 82.4589 79.7279 82.6216 78.0554ZM80.6875 76.0409C81.5341 76.0409 82.1994 75.4631 82.6834 74.3076V72.2993C82.6834 70.8224 82.4826 69.6628 82.0809 68.8203C81.6762 67.9799 81.154 67.5597 80.5145 67.5597C79.8749 67.5597 79.3775 67.9737 78.9913 68.7956C78.5791 69.7559 78.3808 70.7944 78.4104 71.8389C78.4104 73.1407 78.6112 74.1655 79.0129 74.9132C79.4053 75.6671 79.9738 76.0409 80.6875 76.0409Z" fill="white"/>
<path d="M103.264 77.4498C103.264 80.5704 102.699 82.9556 101.568 84.6055C100.437 86.2554 98.8245 87.0793 96.7296 87.0773C94.6534 87.0773 93.0509 86.274 91.9221 84.6673C90.7933 83.0607 90.2073 80.762 90.1641 77.7711V73.5167C90.1641 70.4105 90.7264 68.0345 91.851 66.3887C92.9757 64.743 94.5916 63.9191 96.6987 63.917C98.8018 63.917 100.417 64.7327 101.543 66.364C102.67 67.9954 103.244 70.3229 103.264 73.3467V77.4498ZM98.8708 72.8833C98.8708 71.1077 98.6957 69.7761 98.3455 68.8883C97.9954 68.0005 97.4495 67.5566 96.708 67.5566C95.3135 67.5566 94.5926 69.1828 94.5452 72.4353V78.0554C94.5452 79.8721 94.7234 81.2244 95.0798 82.1122C95.4361 82.9999 95.9912 83.4438 96.7451 83.4438C97.4557 83.4438 97.9841 83.0319 98.3301 82.2079C98.6761 81.384 98.8564 80.108 98.8708 78.3798V72.8833Z" fill="white"/>
<path d="M119.305 77.4498C119.305 80.5704 118.74 82.9556 117.609 84.6055C116.478 86.2554 114.865 87.0793 112.771 87.0773C110.694 87.0773 109.092 86.274 107.963 84.6673C106.834 83.0607 106.248 80.762 106.205 77.7711V73.5167C106.205 70.4105 106.767 68.0345 107.892 66.3887C109.017 64.743 110.633 63.9191 112.74 63.917C114.845 63.917 116.461 64.7327 117.587 66.364C118.714 67.9954 119.287 70.3229 119.305 73.3467V77.4498ZM114.909 72.8833C114.909 71.1077 114.733 69.7761 114.38 68.8883C114.028 68.0005 113.481 67.5566 112.74 67.5566C111.347 67.5566 110.626 69.1828 110.577 72.4353V78.0554C110.577 79.8721 110.755 81.2244 111.112 82.1122C111.468 82.9999 112.023 83.4438 112.777 83.4438C113.487 83.4438 114.013 83.0298 114.365 82.2079C114.717 81.3861 114.893 80.1039 114.915 78.3891L114.909 72.8833Z" fill="white"/>
<path d="M131.892 86.7743H127.496V69.5523L123.207 71.2115V67.5564L131.429 64.1948H131.892V86.7743Z" fill="white"/>
<path fill-rule="evenodd" clip-rule="evenodd" d="M90.7005 119.862L81.3666 130.036L76.9329 134.349L72.6197 129.916L67.7441 124.901L76.9329 127.107L90.7005 119.862Z" fill="#6B6E7A"/>
<path d="M51.6965 113.844C51.6195 114.032 51.5061 114.203 51.3629 114.347C51.2284 114.484 51.0742 114.599 50.9056 114.69C50.7436 114.779 50.5699 114.844 50.3896 114.885C50.2173 114.924 50.0412 114.945 49.8644 114.947C49.5578 114.95 49.2549 114.88 48.9807 114.743C48.7166 114.61 48.4814 114.426 48.2886 114.202C48.0938 113.971 47.943 113.706 47.8437 113.42C47.7381 113.123 47.6848 112.809 47.6861 112.493C47.6877 112.202 47.7335 111.912 47.8221 111.634C47.9086 111.353 48.0457 111.091 48.2268 110.859C48.4083 110.628 48.6368 110.438 48.8973 110.303C49.1901 110.155 49.5149 110.082 49.8427 110.09C50.0162 110.09 50.1891 110.109 50.3587 110.145C50.5323 110.183 50.7005 110.242 50.8592 110.321C51.0258 110.409 51.178 110.521 51.3103 110.655C51.4569 110.805 51.577 110.978 51.6656 111.168L52.7748 110.423C52.5203 109.944 52.1331 109.548 51.6595 109.283C51.1188 108.979 50.5059 108.828 49.886 108.844C49.3807 108.833 48.8787 108.93 48.4133 109.127C47.9478 109.324 47.5294 109.617 47.1856 109.988C46.8736 110.322 46.63 110.715 46.4688 111.143C46.133 112.004 46.1397 112.96 46.4873 113.816C46.662 114.255 46.9142 114.659 47.2319 115.008C47.5542 115.361 47.9399 115.651 48.369 115.861C48.8223 116.081 49.3205 116.192 49.8242 116.186C50.1364 116.185 50.4475 116.147 50.7511 116.074C51.058 116.002 51.3548 115.892 51.6347 115.747C51.9063 115.607 52.1569 115.431 52.3794 115.222C52.5955 115.02 52.7679 114.776 52.8861 114.505L51.6965 113.844Z" fill="#6B6E7A"/>
<path d="M56.5573 114.894V113.006H59.6872V111.866H56.5573V110.12H60.1784V108.884H55.1113V116.123H60.2742V114.888L56.5573 114.894Z" fill="#6B6E7A"/>
<path d="M66.9714 113.392C67.3789 113.228 67.7224 112.936 67.9508 112.561C68.1917 112.178 68.3172 111.734 68.3123 111.282C68.3116 110.982 68.2507 110.686 68.1331 110.411C68.0178 110.124 67.8513 109.862 67.6419 109.635C67.4305 109.405 67.1766 109.219 66.8942 109.085C66.598 108.944 66.2736 108.872 65.9456 108.875H62.6582V116.114H64.1042V113.701H65.5285L67.0456 116.127H68.6676L66.9714 113.392ZM66.7829 111.742C66.7387 111.876 66.6718 112.002 66.5852 112.113C66.5015 112.218 66.3961 112.303 66.2762 112.363C66.1624 112.425 66.0349 112.457 65.9055 112.456H64.0949V110.108H65.8437C65.9724 110.11 66.0991 110.14 66.2144 110.197C66.3332 110.257 66.4384 110.34 66.5234 110.442C66.6209 110.55 66.6973 110.676 66.7489 110.812C66.8059 110.962 66.8342 111.122 66.8324 111.282C66.8428 111.441 66.8261 111.601 66.7829 111.755V111.742Z" fill="#6B6E7A"/>
<path d="M70.1357 108.887V110.123H72.5117V116.13H73.9453V110.12H76.3151V108.884L70.1357 108.887Z" fill="#6B6E7A"/>
<path d="M78.5 108.888V116.127H79.946V108.888H78.5Z" fill="#6B6E7A"/>
<path d="M87.747 110.12V108.884H82.751V116.123H84.197V113.126H87.1476V111.983H84.197V110.129L87.747 110.12Z" fill="#6B6E7A"/>
<path d="M90.0176 108.888V116.127H91.4543V108.888H90.0176Z" fill="#6B6E7A"/>
<path d="M95.7126 114.894V113.006H98.8424V111.866H95.7126V110.12H99.3368V108.884H94.2666V116.123H99.4295V114.888L95.7126 114.894Z" fill="#6B6E7A"/>
<path d="M107.951 111.096C107.806 110.669 107.571 110.277 107.262 109.947C106.939 109.611 106.549 109.348 106.116 109.174C105.608 108.973 105.065 108.876 104.519 108.887H101.818V116.126H104.519C105.035 116.134 105.548 116.046 106.033 115.867C106.464 115.705 106.857 115.455 107.188 115.134C107.514 114.811 107.766 114.421 107.927 113.991C108.26 113.056 108.269 112.037 107.951 111.096ZM106.583 113.444C106.492 113.723 106.347 113.982 106.156 114.204C105.967 114.423 105.732 114.596 105.467 114.711C105.167 114.837 104.844 114.899 104.519 114.893H103.261V110.12H104.519C104.836 110.116 105.152 110.176 105.446 110.296C105.712 110.404 105.951 110.571 106.144 110.784C106.344 111.002 106.498 111.259 106.595 111.538C106.694 111.848 106.743 112.171 106.74 112.496C106.743 112.818 106.694 113.138 106.595 113.444H106.583Z" fill="#6B6E7A"/>
<path fill-rule="evenodd" clip-rule="evenodd" d="M76.9329 127.107V134.349L72.6197 129.915L67.7441 124.901L76.9329 127.107Z" fill="#3C3E49"/>
<path fill-rule="evenodd" clip-rule="evenodd" d="M106.583 38.8032C106.583 38.7977 106.58 38.7757 106.581 38.7809C106.551 38.5253 106.489 38.2745 106.396 38.0347C106.266 37.6956 106.065 37.3875 105.808 37.1303C105.56 36.8866 105.261 36.6993 104.933 36.5812C104.592 36.4575 104.232 36.3954 103.869 36.3977C103.512 36.3961 103.158 36.4582 102.824 36.5812C102.496 36.7004 102.198 36.8876 101.949 37.1303C101.689 37.3875 101.485 37.6954 101.349 38.0347C101.25 38.2811 101.185 38.5395 101.155 38.8032C101.136 38.9625 101.126 39.1227 101.127 39.2832C101.118 39.7089 101.191 40.1323 101.341 40.531C101.471 40.8693 101.671 41.1764 101.929 41.4318C102.178 41.6739 102.477 41.8601 102.804 41.9781C103.145 42.1017 103.506 42.1639 103.869 42.1615C104.238 42.1645 104.605 42.1024 104.953 41.9781C105.28 41.862 105.577 41.6755 105.823 41.4318C106.076 41.1752 106.273 40.8683 106.399 40.531C106.547 40.1317 106.618 39.7085 106.61 39.2832C106.61 39.1228 106.601 38.9625 106.583 38.8032ZM105.232 40.0167C105.173 40.2203 105.076 40.411 104.946 40.5788C104.823 40.7342 104.665 40.8585 104.485 40.9415C104.29 41.0259 104.08 41.0694 103.867 41.0694C103.655 41.0694 103.444 41.0259 103.249 40.9415C103.071 40.8578 102.914 40.7336 102.793 40.5788C102.663 40.4111 102.566 40.2204 102.507 40.0167C102.438 39.7784 102.404 39.5312 102.407 39.2832C102.407 39.1228 102.42 38.9628 102.447 38.8048C102.463 38.7199 102.482 38.6359 102.507 38.5532C102.565 38.3481 102.662 38.156 102.793 37.9872C102.915 37.832 103.071 37.7066 103.249 37.6206C103.443 37.5297 103.655 37.4845 103.869 37.4888C104.082 37.4862 104.292 37.5303 104.485 37.618C104.665 37.701 104.823 37.8253 104.946 37.9808C105.076 38.1497 105.173 38.3419 105.232 38.547C105.257 38.6328 105.277 38.7199 105.292 38.808C105.319 38.9656 105.332 39.125 105.331 39.2848C105.334 39.5323 105.301 39.7789 105.232 40.0167ZM100.095 36.524V38.8032V42.0498H98.8557V36.524H100.095ZM97.9021 40.5348C97.9139 40.7632 97.871 40.9912 97.777 41.1998C97.683 41.4085 97.5406 41.5918 97.3616 41.7348C96.8813 42.0536 96.3082 42.2037 95.7327 42.1615C95.5121 42.1631 95.2916 42.1485 95.073 42.1179C94.8975 42.0928 94.7237 42.0568 94.5526 42.01C94.4201 41.9738 94.2902 41.9286 94.1638 41.8747C94.0701 41.8343 93.9786 41.7891 93.8897 41.739L94.2387 40.7506C94.6976 40.9951 95.2126 41.116 95.7327 41.1014C95.8783 41.1045 96.0237 41.0899 96.1656 41.0578C96.2638 41.0354 96.3569 40.9947 96.4401 40.938C96.5041 40.8932 96.5538 40.8308 96.583 40.7584C96.6104 40.6845 96.6239 40.6062 96.6228 40.5274C96.6221 40.437 96.5984 40.3482 96.5539 40.2694C96.5094 40.1906 96.4456 40.1244 96.3685 40.0768C96.0953 39.9097 95.8011 39.7793 95.4936 39.6892C95.3139 39.6246 95.1338 39.5515 94.9535 39.4699C94.7771 39.3904 94.6133 39.2856 94.4674 39.1588C94.3513 39.0562 94.2518 38.9363 94.1723 38.8035L94.1703 38.7996L94.1684 38.7964C94.1509 38.7667 94.134 38.7366 94.1181 38.7053C94.0227 38.5022 93.9764 38.2796 93.983 38.0554C93.9792 37.8177 94.0281 37.5821 94.1262 37.3654C94.2197 37.163 94.3582 36.9845 94.5313 36.8434C94.7194 36.6927 94.9354 36.5802 95.167 36.5124C95.4404 36.4318 95.7244 36.3928 96.0095 36.3967C96.576 36.385 97.1363 36.5165 97.638 36.7792L97.2816 37.7602C97.1168 37.6759 96.9453 37.6053 96.769 37.5489C96.5483 37.4831 96.3187 37.4522 96.0885 37.4572C95.8681 37.4408 95.6472 37.4835 95.4489 37.5809C95.3854 37.6209 95.3338 37.6771 95.2996 37.7438C95.2654 37.8104 95.2498 37.885 95.2545 37.9598C95.2513 38.0501 95.2764 38.1391 95.3261 38.2146C95.3804 38.29 95.4493 38.3538 95.5286 38.4023C95.6242 38.462 95.7252 38.5127 95.8303 38.5535C95.9443 38.5987 96.0702 38.6452 96.2078 38.693C96.2943 38.7253 96.3766 38.7576 96.456 38.7899L96.477 38.7986L96.4916 38.8044C96.6614 38.8733 96.8156 38.9414 96.954 39.0089C97.1486 39.1006 97.3271 39.2231 97.4825 39.3717C97.622 39.5087 97.7292 39.6748 97.7964 39.8581C97.871 40.0758 97.9067 40.3048 97.9021 40.5348ZM92.9598 36.524V42.0498H91.7201V36.524H92.9598ZM90.5837 37.7191C90.4693 38.0421 90.0919 39.039 90.0594 39.1226C89.8685 39.6117 89.6672 40.1061 89.4555 40.6059C89.2438 41.1057 89.0293 41.5867 88.812 42.0488H87.6202C87.4027 41.5867 87.1881 41.1057 86.9764 40.6059C86.7645 40.1059 85.9644 38.0515 85.8442 37.7191C85.6824 37.2725 85.5433 36.8741 85.4269 36.524H86.7936C86.8997 36.8431 87.0149 37.1877 87.1394 37.5576C87.2638 37.9272 87.7923 39.4234 87.8979 39.7147C88.0202 40.0494 88.1341 40.339 88.2397 40.5836C88.3404 40.3392 88.453 40.0496 88.5777 39.7147C88.6859 39.424 88.8466 38.9776 88.959 38.6617C89.0887 38.2956 89.2158 37.9276 89.3404 37.5576C89.4651 37.1877 89.5802 36.8431 89.6858 36.524H91.0049C90.8831 36.8748 90.7427 37.2735 90.5837 37.7201V37.7191ZM67.549 36.524V38.8032V42.0498H66.5082C66.1535 41.4173 65.7694 40.7928 65.356 40.1763C65.0501 39.7195 64.5764 39.0955 64.2274 38.6581C64.1626 38.5812 64.1014 38.5041 64.0369 38.4281V42.0485H62.8134V36.524H63.8224C63.9974 36.6995 64.1907 36.9148 64.4024 37.17C64.6141 37.4252 64.8301 37.6977 65.0504 37.9876C65.228 38.2214 65.4046 38.4637 65.5805 38.7117L65.6337 38.787L65.6373 38.7922L65.6454 38.8035C65.6654 38.8316 65.6855 38.86 65.7053 38.8888C65.9224 39.1999 66.1263 39.4989 66.317 39.7858V36.5234L67.549 36.524ZM61.8993 41.0052V42.0498H57.9978V38.8032V36.524H61.7166V37.5686H59.2375V38.653H61.4382V38.8032V39.6753H59.2375V41.0064L61.8993 41.0052ZM57.0844 41.0052V42.0498H53.1828V36.524H56.9013V37.5686H54.4222V38.653H56.6233V38.8032V39.6753H54.4222V41.0064L57.0844 41.0052ZM52.0782 41.4318C51.967 41.2223 51.8517 41.0203 51.7325 40.8259C51.6133 40.6314 51.4928 40.4454 51.3712 40.2677C51.249 40.0896 51.1324 39.9315 51.0216 39.7932C51.3253 39.6777 51.5907 39.4803 51.7882 39.2231C51.8824 39.0978 51.9505 38.9551 51.9885 38.8032V38.8012V38.7986V38.7935C52.0329 38.6254 52.0547 38.4521 52.0533 38.2783C52.0724 38.0116 52.0216 37.7446 51.9059 37.5034C51.7903 37.2623 51.6137 37.0552 51.3936 36.9026C50.8176 36.5731 50.1573 36.4192 49.4945 36.46C49.2666 36.46 49.0083 36.4708 48.7198 36.4923C48.4384 36.5127 48.1584 36.5499 47.8815 36.6038V42.0501H49.1212V40.0329H49.733C49.8386 40.1606 49.9445 40.3027 50.0508 40.4593C50.1571 40.6158 50.2644 40.7821 50.3726 40.958C50.4806 41.1335 50.5865 41.3142 50.6904 41.5C50.7938 41.6864 50.8959 41.8692 50.9963 42.0491H52.3867C52.2923 41.8476 52.1893 41.6418 52.0782 41.4318ZM49.4721 39.0438H49.1225V37.5447C49.1873 37.5392 49.2521 37.5341 49.325 37.5286C49.3979 37.5231 49.4773 37.5208 49.5674 37.5208C49.8775 37.5027 50.1874 37.5615 50.4691 37.692C50.57 37.7494 50.6524 37.8343 50.7066 37.9367C50.7607 38.0391 50.7845 38.1548 50.775 38.2702C50.782 38.3686 50.7669 38.4674 50.7309 38.5593C50.6949 38.6512 50.6388 38.7339 50.5667 38.8016C50.5376 38.8265 50.5064 38.8489 50.4734 38.8684C50.159 39.0077 49.8152 39.0679 49.4721 39.0438ZM112.379 36.5243V42.0501H111.338C110.984 41.4176 110.6 40.7931 110.186 40.1766C109.877 39.7147 109.391 39.0758 109.04 38.6387C108.983 38.5693 108.926 38.4986 108.867 38.4298V42.0501H107.643V36.524H108.653C108.828 36.6995 109.021 36.9148 109.233 37.17C109.445 37.4252 109.661 37.6977 109.881 37.9876C110.081 38.2505 110.28 38.5225 110.477 38.8035H110.467L110.534 38.8888C110.752 39.1999 110.956 39.4989 111.146 39.7858V36.5234L112.379 36.5243ZM46.7325 39.132V41.8669C46.4995 41.9481 46.2604 42.0107 46.0174 42.0543C45.6163 42.1271 45.209 42.1605 44.8014 42.1541C44.4181 42.1592 44.0371 42.0943 43.6773 41.9626C43.3521 41.8423 43.0576 41.6516 42.8151 41.4044C42.569 41.1468 42.3811 40.8396 42.2643 40.5035C42.1286 40.1112 42.0628 39.6984 42.0698 39.2835C42.07 39.1231 42.0794 38.9628 42.098 38.8035L42.0997 38.7893C42.1295 38.5378 42.1916 38.2912 42.2843 38.0554C42.4159 37.7169 42.616 37.409 42.8721 37.151C43.1214 36.9035 43.4208 36.7117 43.7502 36.5886C44.0944 36.4597 44.4593 36.3949 44.8269 36.3974C45.0623 36.3955 45.2975 36.4128 45.5301 36.449C45.7126 36.4776 45.8931 36.5177 46.0705 36.5689C46.1985 36.6054 46.3233 36.6521 46.4438 36.7084C46.541 36.7562 46.612 36.7934 46.6544 36.8199L46.298 37.8167C46.1118 37.7195 45.9164 37.6407 45.7148 37.5815C45.4813 37.5131 45.2391 37.4794 44.9958 37.4817C44.7639 37.4602 44.5303 37.4926 44.3131 37.5763C44.096 37.6601 43.9013 37.7929 43.7444 37.9643C43.5579 38.208 43.4379 38.4956 43.3961 38.7993C43.3713 38.9596 43.3588 39.1216 43.3588 39.2838C43.3565 39.533 43.3893 39.7814 43.456 40.0216C43.5127 40.2284 43.61 40.4219 43.7421 40.591C43.8691 40.7508 44.0325 40.878 44.2188 40.9622C44.4289 41.0539 44.6566 41.0988 44.8859 41.094C45.024 41.094 45.1419 41.0911 45.2397 41.0859C45.3269 41.0819 45.4136 41.0711 45.499 41.0536V39.132H46.7325Z" fill="#3C3E49"/>
<path d="M72.9406 37.6855C73.1192 39.5403 75.3731 40.7732 77.613 41.1069C77.3369 39.6914 77.1973 38.2528 77.1963 36.8108C76.5444 36.6309 75.4226 36.3777 75.1796 36.3283C74.9099 36.274 74.6354 36.2467 74.3602 36.2469C73.8654 36.2517 72.835 36.587 72.9406 37.6855ZM82.2035 38.8465C81.0993 38.2306 79.9435 37.7119 78.7491 37.296C78.6914 38.6174 78.4117 39.9198 77.9215 41.1489C80.166 41.3983 82.3 40.7283 82.2035 38.8448V38.8465ZM83.8654 39.2796C83.8654 40.6851 83.4473 42.059 82.664 43.2276C81.8807 44.3963 80.7674 45.3071 79.4648 45.845C78.1623 46.3828 76.729 46.5235 75.3462 46.2493C73.9634 45.9751 72.6932 45.2983 71.6963 44.3045C70.6994 43.3107 70.0204 42.0445 69.7454 40.666C69.4703 39.2875 69.6115 37.8587 70.151 36.5602C70.6906 35.2617 71.6042 34.1518 72.7765 33.371C73.9488 32.5901 75.327 32.1733 76.7369 32.1733C78.6274 32.1734 80.4405 32.9222 81.7773 34.2548C83.1141 35.5875 83.8651 37.395 83.8651 39.2796H83.8654ZM71.1559 36.074C71.4345 35.9625 71.7307 35.9014 72.0308 35.8935C72.5475 35.9288 73.0702 35.9832 73.5991 36.0566C73.3673 36.043 73.1372 36.0339 72.9089 36.0291C72.2978 36.0647 71.0471 36.5573 71.2493 37.9527C71.9349 42.6819 82.7844 43.7023 82.7796 39.1556C82.9137 39.232 83.0466 39.3095 83.1781 39.3881C83.1781 39.352 83.1781 39.3158 83.1781 39.2796C83.1777 37.866 82.7093 36.492 81.8456 35.3708C80.9819 34.2496 79.7712 33.4439 78.4014 33.0786C77.0315 32.7133 75.5789 32.8089 74.2691 33.3505C72.9592 33.8921 71.8653 34.8494 71.1569 36.074H71.1559ZM82.4756 42.1955C79.5724 44.3596 72.0671 42.9232 70.2944 39.2883C70.2961 40.7301 70.7845 42.1294 71.6809 43.2608C72.5773 44.3922 73.8296 45.19 75.2362 45.5257C76.6427 45.8614 78.1217 45.7154 79.4349 45.1113C80.7481 44.5072 81.8192 43.4802 82.4756 42.1955Z" fill="#009B44"/>
<defs>
<linearGradient id="paint0_linear_2421_9427" x1="25.6136" y1="127.089" x2="128.296" y2="24.4063" gradientUnits="userSpaceOnUse">
<stop stop-color="#EAEAEA"/>
<stop offset="1" stop-color="white"/>
</linearGradient>
<linearGradient id="paint1_linear_2421_9427" x1="29.8347" y1="122.868" x2="124.175" y2="28.5278" gradientUnits="userSpaceOnUse">
<stop stop-color="white"/>
<stop offset="1" stop-color="#EAEAEA"/>
</linearGradient>
</defs>
</svg>
